<?xml version="1.0" standalone="no"?>
<!DOCTYPE svg PUBLIC "-//W3C//DTD SVG 20010904//EN"
 "http://www.w3.org/TR/2001/REC-SVG-20010904/DTD/svg10.dtd">
<svg version="1.0" xmlns="http://www.w3.org/2000/svg"
 width="2048.000000pt" height="2048.000000pt" viewBox="0 0 2048.000000 2048.000000"
 preserveAspectRatio="xMidYMid meet">
<metadata>
Created by potrace 1.14, written by Peter Selinger 2001-2017
</metadata>
<g transform="translate(0.000000,2048.000000) scale(0.100000,-0.100000)"
fill="#000000" stroke="none">
<path d="M13670 18703 c0 -9 -15 -13 -43 -13 -24 0 -49 -6 -56 -12 -11 -11
-12 -10 -6 2 8 13 7 13 -8 1 -14 -11 -17 -11 -17 0 0 11 -2 11 -8 2 -4 -7 -18
-11 -30 -8 -13 2 -20 0 -17 -4 3 -5 -2 -12 -11 -15 -9 -4 -13 -2 -8 5 4 8 1 8
-14 0 -11 -6 -30 -11 -41 -11 -12 0 -21 -6 -21 -12 0 -10 -2 -10 -9 0 -7 11
-9 10 -15 -3 -3 -9 -10 -14 -15 -11 -13 8 -42 -4 -36 -15 3 -4 -4 -6 -15 -4
-11 2 -20 -1 -20 -7 0 -6 -3 -8 -6 -5 -10 10 -45 -13 -38 -24 4 -7 -3 -6 -16
1 -14 7 -20 8 -16 1 7 -11 -48 -44 -58 -34 -3 4 -6 1 -6 -6 0 -7 -5 -9 -10 -6
-6 4 -9 1 -8 -7 2 -8 -6 -13 -19 -12 -14 1 -20 -3 -16 -12 3 -9 -2 -12 -17 -9
-18 4 -20 2 -9 -11 10 -12 9 -13 -6 -8 -13 5 -16 4 -11 -4 6 -11 -12 -17 -37
-13 -4 1 -10 -6 -13 -14 -4 -8 -11 -15 -16 -15 -6 0 -17 -8 -25 -17 -8 -10
-11 -12 -7 -4 5 9 3 12 -4 7 -7 -4 -12 -14 -12 -22 0 -9 -6 -14 -12 -11 -7 2
-19 -3 -26 -12 -11 -13 -12 -13 -6 -1 4 9 3 12 -2 7 -5 -5 -10 -13 -10 -18 -1
-5 -2 -12 -3 -15 0 -4 -8 -1 -16 6 -13 11 -14 10 -8 -5 5 -14 3 -17 -10 -12
-11 4 -17 1 -17 -8 0 -9 6 -12 18 -9 13 5 14 4 3 -4 -8 -5 -24 -9 -37 -7 -13
1 -21 -1 -18 -6 6 -10 -31 -30 -40 -21 -4 3 -4 -2 0 -11 4 -12 2 -17 -7 -15
-8 2 -13 -2 -12 -9 2 -7 -4 -10 -12 -7 -8 4 -17 -1 -21 -10 -3 -9 -10 -13 -15
-10 -5 3 -9 -2 -9 -10 0 -8 -5 -18 -12 -22 -7 -4 -8 -3 -4 4 5 8 2 10 -8 6 -9
-3 -13 -10 -10 -15 3 -5 -2 -9 -11 -9 -10 0 -13 -5 -9 -12 5 -8 2 -9 -9 -5
-13 5 -17 1 -17 -15 0 -18 -2 -19 -17 -7 -11 10 -14 10 -9 2 4 -8 2 -13 -4
-13 -6 0 -8 -5 -4 -12 4 -6 3 -8 -3 -5 -6 4 -19 -1 -29 -9 -10 -9 -13 -12 -5
-8 10 5 12 3 6 -5 -4 -7 -15 -11 -25 -8 -11 3 -17 0 -14 -7 2 -6 -11 -20 -31
-30 -19 -10 -32 -23 -28 -29 4 -6 -2 -8 -15 -5 -15 4 -19 2 -15 -8 3 -8 0 -14
-7 -14 -7 0 -23 -11 -35 -24 -13 -14 -25 -22 -28 -20 -3 3 -10 -4 -17 -15 -6
-12 -15 -19 -21 -16 -5 4 -9 -2 -9 -12 0 -15 -2 -16 -10 -3 -8 13 -10 13 -10
-2 0 -9 -5 -20 -12 -24 -7 -5 -9 -2 -4 7 4 8 -2 2 -14 -13 -12 -16 -28 -28
-36 -28 -9 0 -11 -6 -7 -17 6 -16 5 -17 -12 -3 -11 9 -16 10 -11 3 4 -8 2 -13
-4 -13 -6 0 -8 -4 -5 -10 4 -6 -1 -7 -11 -3 -12 4 -15 3 -10 -5 6 -11 -5 -16
-26 -13 -4 0 -4 -7 -1 -16 4 -11 3 -14 -5 -9 -7 4 -12 2 -12 -4 0 -6 -3 -9 -7
-7 -5 3 -14 -1 -21 -9 -7 -8 -9 -14 -5 -15 4 0 -3 -5 -17 -11 -14 -6 -29 -10
-34 -9 -5 1 -3 -5 4 -14 11 -13 10 -14 -5 -9 -13 5 -16 4 -11 -4 4 -7 1 -12
-7 -12 -8 0 -18 -7 -21 -16 -4 -9 -9 -14 -12 -11 -3 3 -17 -6 -30 -20 -12 -13
-28 -22 -34 -18 -6 3 -9 1 -8 -7 2 -7 -3 -12 -9 -10 -7 1 -13 -5 -13 -13 0 -8
-5 -15 -11 -15 -5 0 -7 5 -3 12 4 7 3 8 -4 4 -6 -4 -8 -14 -5 -24 3 -9 3 -14
-2 -10 -4 4 -14 0 -22 -10 -8 -9 -11 -11 -7 -3 5 9 3 12 -4 7 -7 -4 -12 -14
-12 -22 0 -9 -5 -14 -12 -12 -6 2 -32 -17 -58 -43 -27 -26 -51 -45 -54 -42 -3
4 -6 1 -6 -6 0 -7 -4 -10 -8 -7 -5 3 -19 -6 -30 -19 -12 -14 -27 -25 -33 -25
-5 0 -7 -4 -4 -10 3 -5 -4 -10 -15 -10 -16 0 -20 -4 -16 -16 3 -8 2 -12 -3 -9
-5 3 -13 0 -16 -6 -4 -5 -13 -8 -21 -5 -8 3 -11 0 -8 -8 3 -7 -7 -18 -20 -26
-14 -7 -23 -17 -20 -22 3 -5 -1 -8 -9 -6 -9 2 -16 -1 -17 -7 -1 -5 -10 -13
-21 -17 -13 -5 -18 -13 -13 -20 4 -7 4 -10 -1 -6 -4 4 -14 0 -22 -10 -12 -16
-13 -16 -8 3 5 16 3 16 -6 -2 -7 -13 -18 -23 -26 -23 -8 0 -11 -4 -8 -10 6 -9
-8 -14 -28 -11 -5 1 -6 -3 -3 -8 6 -9 -21 -26 -36 -23 -4 1 -5 -5 -2 -13 4 -9
0 -15 -9 -15 -9 0 -20 -7 -25 -17 -6 -9 -16 -14 -26 -10 -9 3 -15 3 -15 -1 4
-23 -3 -34 -17 -28 -8 3 -12 2 -9 -4 3 -6 -4 -14 -17 -19 -13 -5 -34 -20 -48
-33 -13 -12 -28 -22 -32 -20 -5 1 -8 -6 -8 -16 0 -17 -57 -59 -72 -54 -5 1 -8
-5 -8 -13 0 -8 -3 -14 -7 -14 -20 3 -34 -2 -28 -11 3 -5 1 -10 -5 -10 -6 0 -9
-4 -6 -9 3 -4 -5 -7 -19 -6 -18 2 -22 -1 -18 -13 4 -10 3 -14 -2 -10 -4 4 -19
-5 -33 -20 -14 -15 -29 -27 -33 -27 -5 0 -15 -9 -24 -20 -9 -11 -13 -13 -9 -5
3 8 -7 0 -24 -17 -17 -18 -36 -33 -41 -33 -6 0 -11 -4 -11 -9 0 -5 -9 -13 -20
-16 -11 -4 -18 -11 -15 -16 4 -5 -3 -9 -14 -9 -11 0 -30 -14 -43 -30 -12 -17
-27 -29 -34 -26 -6 2 -17 -7 -25 -20 -9 -18 -15 -21 -21 -12 -5 9 -8 8 -8 -5
0 -11 -6 -17 -17 -15 -10 2 -18 -3 -19 -9 -1 -7 -2 -17 -3 -22 0 -5 -7 -8 -13
-7 -7 0 -13 -3 -13 -7 0 -12 -48 -36 -59 -30 -5 4 -6 1 -2 -5 4 -7 2 -12 -4
-12 -6 0 -8 -5 -4 -12 5 -7 0 -9 -14 -6 -16 4 -19 2 -15 -10 4 -10 2 -13 -5
-8 -7 4 -12 2 -12 -4 0 -6 -12 -15 -26 -20 -14 -6 -23 -14 -20 -19 3 -5 -1
-12 -10 -15 -8 -3 -12 -2 -9 4 3 6 -1 7 -9 4 -9 -3 -13 -10 -10 -16 3 -5 -3
-12 -15 -15 -12 -3 -21 -9 -21 -14 0 -5 -7 -9 -16 -9 -8 0 -12 -4 -9 -10 6 -9
-8 -14 -28 -11 -5 1 -6 -3 -3 -8 4 -5 -3 -12 -14 -16 -11 -4 -17 -11 -14 -17
5 -7 0 -9 -14 -6 -16 4 -19 2 -15 -10 5 -11 3 -13 -7 -7 -10 6 -12 4 -7 -9 6
-14 3 -15 -13 -6 -16 8 -20 8 -18 -2 2 -7 -3 -12 -10 -10 -8 1 -11 -2 -7 -8 3
-5 1 -10 -5 -10 -6 0 -8 -4 -5 -10 4 -6 -1 -7 -11 -3 -11 4 -15 2 -11 -4 6
-10 -27 -27 -45 -24 -5 1 -7 -2 -7 -7 4 -21 -3 -31 -16 -26 -10 4 -15 0 -15
-11 0 -9 -4 -14 -9 -11 -5 3 -25 -9 -44 -28 -26 -25 -39 -30 -47 -22 -8 8 -9
6 -4 -8 6 -15 4 -18 -9 -13 -9 3 -16 3 -16 -1 3 -21 -3 -31 -16 -26 -9 4 -15
0 -15 -10 0 -9 -3 -15 -7 -14 -14 4 -54 -23 -48 -32 4 -6 -1 -7 -11 -3 -12 4
-15 3 -10 -5 4 -7 1 -12 -8 -12 -8 0 -19 -8 -25 -17 -5 -10 -13 -18 -18 -18
-4 0 -7 -3 -6 -7 2 -4 -4 -5 -12 -2 -9 4 -15 0 -15 -10 0 -9 -3 -15 -7 -15
-20 3 -34 -2 -28 -11 3 -5 -1 -10 -9 -10 -9 0 -16 -5 -16 -11 0 -5 -4 -8 -9
-5 -5 3 -12 -1 -15 -10 -3 -8 -10 -13 -15 -9 -6 3 -15 -4 -21 -15 -6 -11 -15
-18 -20 -15 -5 3 -14 -4 -20 -15 -6 -11 -17 -20 -24 -20 -8 0 -16 -7 -20 -15
-3 -8 -26 -24 -51 -36 -24 -12 -42 -25 -39 -30 3 -5 -4 -9 -15 -9 -12 0 -21
-4 -21 -8 0 -5 -12 -15 -27 -23 -16 -8 -30 -16 -33 -19 -13 -13 -72 -41 -66
-31 4 6 -8 2 -26 -8 -34 -20 -95 -35 -135 -34 -57 2 -64 4 -59 12 3 4 -6 7
-19 5 -14 -1 -25 2 -25 7 0 6 -4 7 -10 4 -5 -3 -10 -1 -10 6 0 7 -3 9 -7 6 -3
-4 -19 7 -35 23 -15 16 -28 26 -28 22 0 -4 -5 1 -11 11 -6 9 -16 14 -22 11 -7
-4 -9 -4 -5 1 4 4 0 14 -8 22 -8 8 -11 20 -7 26 3 7 3 9 -2 5 -10 -10 -38 19
-30 32 3 5 -1 10 -10 10 -9 0 -13 5 -10 10 3 6 1 10 -5 10 -6 0 -8 5 -5 10 3
6 1 10 -4 10 -6 0 -11 7 -11 15 0 8 -4 15 -10 15 -5 0 -10 9 -10 20 0 12 -9
31 -20 43 -11 12 -18 27 -16 34 3 7 1 13 -5 13 -6 0 -7 5 -4 10 3 6 1 10 -4
10 -6 0 -11 12 -11 26 0 16 -4 23 -11 18 -7 -4 -10 -1 -7 7 3 8 -4 25 -16 38
-11 13 -15 21 -8 17 17 -10 15 9 -3 24 -8 7 -12 16 -9 21 3 5 1 9 -5 9 -6 0
-7 7 -4 17 5 12 3 14 -7 8 -10 -6 -12 -3 -8 13 4 13 1 22 -5 22 -6 0 -7 3 -4
7 4 3 -1 15 -10 26 -17 20 -17 20 2 14 l20 -7 -20 16 c-11 8 -19 22 -17 30 2
8 -2 14 -7 14 -6 0 -8 6 -5 14 3 7 -4 30 -16 51 -12 21 -19 47 -17 57 3 12 0
18 -10 18 -10 0 -14 6 -10 20 3 10 1 20 -4 22 -4 2 -11 19 -14 38 -3 19 -11
41 -18 49 -10 12 -9 13 2 7 8 -5 6 3 -5 20 -11 15 -13 25 -7 21 9 -6 11 -3 7
7 -3 9 -10 16 -16 16 -5 0 -7 4 -4 9 4 5 0 12 -6 14 -10 4 -9 6 1 6 11 1 11 4
1 16 -7 8 -9 15 -5 15 4 0 2 7 -5 15 -7 8 -10 22 -6 30 3 8 1 15 -5 15 -6 0
-9 6 -6 14 3 8 3 17 -1 20 -3 4 -8 19 -10 33 -2 14 -10 40 -19 57 -15 29 -15
30 1 17 14 -12 16 -12 10 3 -3 9 -10 16 -15 16 -4 0 -5 7 -2 17 4 10 2 14 -4
10 -7 -4 -10 0 -8 10 1 10 -1 26 -6 35 -6 11 -5 18 4 21 7 4 6 6 -4 6 -10 1
-16 9 -15 24 1 12 -4 31 -11 42 -16 25 -17 38 0 29 13 -9 -11 26 -28 38 -6 5
-4 8 4 8 11 0 10 4 -5 16 -10 8 -12 12 -4 8 12 -7 13 -5 3 8 -7 8 -10 18 -6
21 3 4 2 7 -4 7 -9 0 -27 55 -20 63 1 1 -9 17 -23 36 -13 19 -19 31 -12 27 19
-12 14 1 -10 25 -13 12 -16 18 -8 13 8 -4 3 8 -12 28 -16 20 -28 43 -28 51 0
8 -7 18 -16 21 -8 3 -13 10 -10 14 3 5 -3 14 -14 22 -10 7 -16 19 -13 27 3 7
0 13 -7 13 -6 0 -9 4 -6 8 3 5 -4 14 -14 22 -10 8 -17 17 -14 22 3 4 0 8 -6 8
-6 0 -8 5 -5 10 3 6 1 10 -4 10 -6 0 -11 7 -11 16 0 8 -4 12 -10 9 -5 -3 -10
1 -10 10 0 8 -7 18 -16 22 -8 3 -13 12 -10 20 3 8 1 11 -4 8 -6 -3 -10 1 -10
10 0 9 -4 13 -10 10 -5 -3 -10 1 -10 10 0 9 -5 13 -11 10 -6 -4 -9 0 -7 11 2
10 -3 19 -10 19 -16 0 -63 55 -56 67 3 4 2 8 -3 7 -21 -4 -33 2 -33 16 0 8 -7
15 -16 15 -8 0 -13 4 -10 9 3 5 -3 11 -14 14 -11 3 -20 13 -20 24 0 14 -2 15
-9 4 -7 -11 -10 -9 -16 8 -3 11 -13 21 -21 21 -8 0 -14 5 -14 10 0 6 -5 10
-11 10 -16 0 -39 26 -31 35 4 5 2 5 -4 2 -6 -4 -22 2 -35 13 -13 11 -29 23
-34 28 -6 5 -17 6 -24 4 -8 -3 -11 0 -8 5 3 5 -3 15 -15 22 -14 9 -18 9 -13 1
6 -9 2 -9 -14 -1 -11 7 -21 14 -21 17 0 3 5 2 12 -2 7 -4 8 -3 4 4 -4 7 -16
12 -26 12 -10 0 -22 5 -25 11 -4 6 -13 8 -21 5 -8 -3 -14 0 -14 7 0 7 -12 14
-27 15 -16 1 -30 7 -31 12 -2 6 -12 10 -23 10 -10 0 -19 5 -19 11 0 5 -4 8 -9
5 -5 -3 -12 1 -15 10 -5 13 -9 14 -20 5 -10 -9 -16 -9 -21 -1 -4 6 -13 9 -21
6 -8 -3 -14 -1 -14 5 0 6 -4 7 -10 4 -5 -3 -10 2 -10 11 0 16 -1 16 -16 -2 -8
-10 -13 -14 -10 -7 7 13 -28 28 -44 18 -5 -3 -10 -1 -10 6 0 7 -3 9 -7 6 -3
-4 -13 -1 -21 6 -13 10 -15 9 -8 -7 6 -18 5 -19 -11 -4 -10 8 -24 13 -32 10
-10 -3 -11 0 -5 9 7 12 5 12 -9 0 -12 -9 -17 -10 -17 -2 0 7 -4 10 -9 7 -4 -3
-22 -1 -40 4 -19 5 -29 5 -26 -1 4 -5 2 -9 -4 -9 -5 0 -12 6 -15 13 -5 9 -7 9
-12 -1 -3 -6 -11 -9 -17 -5 -17 11 -88 13 -82 3 8 -13 -28 1 -37 14 -5 7 -8 7
-8 -1 0 -7 -11 -13 -24 -13 -13 0 -27 6 -29 13 -4 8 -6 6 -6 -4 -1 -12 -8 -15
-26 -11 -16 3 -25 0 -25 -8 0 -9 -3 -10 -13 -1 -10 8 -17 7 -25 -1 -9 -9 -12
-9 -12 1 0 10 -3 11 -13 2 -8 -6 -17 -8 -20 -4 -4 3 -7 1 -7 -6 0 -10 -8 -8
-27 5 -26 16 -27 16 -14 0 13 -15 12 -17 -13 -12 -15 3 -24 1 -21 -5 6 -8 -24
-13 -78 -12 -11 0 -16 -6 -13 -14 6 -16 -10 -18 -20 -2 -3 6 -9 7 -13 3 -11
-16 -45 -40 -37 -26 11 18 -2 15 -32 -8 -17 -14 -28 -17 -32 -9 -5 7 -10 4
-14 -7 -6 -16 -8 -16 -16 -4 -8 12 -10 12 -10 -4 0 -11 -3 -17 -6 -13 -3 3
-22 -3 -41 -14 -20 -12 -32 -14 -28 -7 4 7 -1 4 -9 -6 -9 -11 -16 -16 -16 -12
0 5 -7 3 -15 -4 -8 -6 -19 -9 -24 -5 -7 4 -8 -1 -4 -11 5 -14 2 -16 -19 -12
-17 3 -25 1 -22 -6 5 -13 -45 -38 -59 -29 -6 3 -7 1 -3 -5 7 -12 -39 -38 -57
-33 -5 1 -6 -3 -2 -8 3 -6 -4 -15 -15 -21 -11 -6 -17 -16 -14 -22 5 -7 2 -8
-6 -3 -8 5 -20 -1 -32 -16 -11 -13 -17 -17 -13 -9 4 8 -7 -1 -24 -20 -17 -19
-36 -34 -41 -32 -6 1 -10 -5 -10 -13 0 -8 -9 -19 -20 -25 -11 -6 -20 -18 -20
-26 0 -10 -6 -14 -14 -11 -11 4 -13 1 -9 -10 5 -12 3 -14 -8 -8 -12 8 -12 6
-1 -8 12 -14 11 -16 -6 -12 -15 3 -19 -2 -16 -21 1 -13 -2 -22 -7 -18 -5 3 -6
10 -3 16 4 7 2 8 -5 4 -6 -4 -9 -12 -6 -17 4 -5 1 -9 -5 -9 -6 0 -8 -4 -5 -10
3 -5 -1 -10 -10 -10 -9 0 -18 -12 -22 -30 -3 -17 -9 -33 -14 -36 -5 -3 -6 3
-3 13 6 16 5 15 -9 -2 -8 -11 -14 -27 -12 -36 2 -9 -3 -16 -10 -15 -8 0 -14
-2 -14 -7 0 -4 -7 -20 -15 -36 -9 -16 -12 -32 -8 -37 4 -5 -2 -2 -12 6 -13 10
-17 10 -12 3 4 -8 2 -13 -6 -13 -10 0 -10 -2 1 -9 9 -6 10 -11 2 -15 -6 -4
-11 -4 -11 1 0 4 -4 1 -10 -7 -6 -9 -5 -17 2 -21 6 -4 2 -10 -11 -14 -17 -5
-20 -10 -11 -20 9 -11 6 -12 -12 -8 -18 4 -20 2 -8 -6 12 -9 12 -11 -3 -17 -9
-3 -14 -10 -11 -15 3 -5 11 -6 17 -2 7 4 6 0 -2 -10 -16 -20 -25 -23 -15 -4 5
8 4 9 -4 2 -6 -5 -12 -21 -14 -35 -2 -14 -9 -24 -15 -23 -8 2 -10 -4 -6 -14 5
-12 3 -14 -8 -8 -12 7 -12 6 -1 -7 11 -14 9 -19 -10 -32 -12 -9 -18 -16 -13
-16 5 0 0 -7 -11 -16 -10 -8 -12 -13 -4 -9 10 4 9 2 -2 -8 -10 -8 -15 -17 -11
-21 4 -4 1 -11 -7 -17 -13 -8 -13 -10 0 -19 13 -9 13 -10 0 -11 -8 -1 -18 -1
-23 0 -4 0 -6 -2 -6 -6 1 -5 1 -21 0 -38 -1 -23 -3 -27 -11 -15 -7 11 -10 7
-10 -18 0 -19 -4 -31 -10 -27 -6 3 -7 -1 -4 -9 4 -10 1 -16 -7 -16 -7 0 -9 -3
-6 -7 4 -3 2 -12 -3 -18 -6 -7 -11 -24 -12 -38 -2 -18 -6 -23 -14 -16 -8 7
-11 1 -9 -21 1 -16 -1 -30 -6 -30 -5 0 -9 -7 -9 -15 0 -15 -3 -24 -34 -82 -9
-17 -16 -39 -16 -48 0 -10 -5 -14 -12 -9 -7 4 -10 4 -6 -1 4 -4 2 -15 -5 -23
-10 -13 -9 -14 2 -7 8 5 5 -5 -7 -23 -12 -17 -21 -34 -20 -39 1 -4 -3 -18 -10
-29 -6 -12 -8 -24 -5 -28 3 -3 1 -6 -5 -6 -7 0 -11 -3 -11 -7 4 -22 -2 -33
-14 -27 -8 5 -8 2 2 -9 9 -11 10 -17 2 -17 -6 0 -11 -7 -11 -15 0 -8 -6 -15
-12 -15 -9 0 -8 -4 2 -10 10 -6 11 -10 3 -10 -7 0 -13 -6 -13 -12 0 -7 -10
-33 -22 -58 -12 -25 -20 -49 -19 -54 1 -4 -5 -19 -14 -32 -8 -13 -12 -24 -9
-24 4 0 -1 -10 -12 -22 -12 -13 -13 -18 -4 -13 12 7 13 6 3 -7 -7 -8 -10 -18
-6 -21 3 -4 1 -7 -6 -7 -7 0 -10 -4 -7 -9 4 -5 2 -11 -4 -13 -8 -2 -16 -29
-19 -61 -1 -5 -6 -5 -12 -1 -7 4 -9 0 -5 -13 4 -13 -3 -33 -18 -55 -17 -26
-21 -39 -13 -47 8 -8 7 -11 -5 -11 -10 0 -15 -7 -14 -17 2 -10 -4 -24 -13 -31
-12 -10 -12 -12 -1 -6 12 7 13 5 3 -8 -7 -8 -10 -18 -6 -21 3 -4 1 -7 -5 -7
-7 0 -11 -3 -11 -7 1 -5 -4 -24 -12 -43 -7 -19 -12 -38 -11 -42 1 -5 -2 -8 -7
-8 -5 0 -12 -7 -15 -16 -3 -9 -2 -12 5 -8 6 3 5 -3 -3 -15 -7 -12 -16 -21 -19
-21 -4 0 -5 -10 -1 -22 4 -17 2 -20 -12 -15 -13 5 -15 3 -7 -12 8 -13 6 -23
-7 -37 -9 -10 -19 -30 -21 -44 -1 -14 -8 -28 -13 -31 -6 -4 -7 -12 -4 -18 4
-6 1 -14 -8 -17 -8 -3 -12 -12 -9 -20 3 -8 0 -14 -7 -14 -6 0 -8 -5 -5 -10 4
-6 2 -16 -3 -23 -6 -7 -12 -21 -14 -32 -1 -11 -11 -28 -20 -39 -9 -10 -14 -24
-11 -32 3 -8 -1 -14 -8 -14 -7 0 -9 -3 -6 -7 4 -3 1 -13 -6 -21 -10 -13 -9
-14 1 -8 11 7 11 4 1 -12 -7 -12 -16 -19 -20 -16 -4 2 -5 -5 -2 -16 3 -11 0
-20 -6 -20 -6 0 -10 -3 -10 -7 3 -17 -14 -73 -22 -73 -4 0 -11 -16 -15 -35 -3
-19 -11 -35 -17 -35 -6 0 -8 -3 -4 -6 3 -4 -1 -21 -11 -38 -9 -17 -17 -35 -17
-41 -1 -5 -6 -20 -13 -31 -6 -12 -8 -24 -5 -28 3 -3 1 -6 -6 -6 -7 0 -10 -4
-6 -9 3 -5 -2 -17 -11 -25 -8 -9 -12 -16 -8 -16 3 0 0 -8 -7 -17 -8 -9 -9 -14
-3 -10 6 3 4 -9 -5 -27 -9 -19 -19 -32 -23 -30 -3 2 -5 -4 -3 -13 1 -10 -2
-27 -8 -38 -11 -20 -13 -26 -16 -46 0 -5 -5 -7 -11 -4 -6 3 -7 -1 -4 -10 4 -9
-1 -24 -10 -34 -9 -10 -13 -21 -9 -24 3 -4 0 -7 -8 -7 -11 0 -11 -2 1 -10 8
-5 10 -10 4 -10 -10 0 -16 -12 -24 -48 -1 -4 -9 -16 -18 -26 -9 -11 -11 -16
-4 -12 7 4 1 -13 -12 -37 -14 -24 -23 -47 -19 -50 3 -4 -1 -9 -10 -13 -9 -3
-14 -14 -12 -25 2 -10 -1 -19 -6 -19 -6 0 -7 -4 -4 -10 3 -5 1 -10 -4 -10 -6
0 -10 -3 -10 -7 3 -19 -2 -34 -9 -29 -4 2 -8 -3 -9 -12 -2 -32 -9 -50 -23 -68
-13 -16 -13 -17 0 -9 9 5 8 0 -4 -13 -11 -12 -15 -22 -11 -22 5 0 4 -5 -3 -12
-7 -7 -12 -20 -12 -30 0 -10 -5 -18 -11 -18 -6 0 -9 -7 -5 -15 3 -8 1 -15 -5
-15 -6 0 -7 -4 -4 -10 3 -5 2 -10 -4 -10 -6 0 -8 -7 -5 -15 4 -8 1 -15 -6 -15
-6 0 -8 -5 -4 -11 3 -6 0 -15 -7 -20 -11 -7 -11 -9 -1 -9 8 0 5 -8 -8 -22 -11
-12 -18 -28 -16 -35 3 -7 2 -13 -2 -13 -4 0 -8 -10 -9 -22 -1 -11 -8 -25 -15
-29 -7 -5 -9 -9 -4 -9 6 0 5 -5 -1 -11 -6 -6 -9 -18 -6 -27 5 -11 3 -13 -7 -7
-10 6 -12 3 -8 -13 4 -12 2 -20 -3 -16 -5 3 -9 -4 -9 -16 0 -12 -4 -19 -8 -16
-7 4 -11 -10 -14 -52 -1 -7 -7 -11 -13 -8 -8 3 -10 -4 -7 -20 2 -14 0 -24 -7
-24 -6 0 -10 -3 -10 -7 1 -5 0 -11 -1 -15 -4 -13 -7 -27 -9 -39 0 -5 -5 -8
-10 -5 -4 3 -7 -6 -5 -19 1 -14 -2 -25 -8 -25 -6 0 -7 -7 -4 -16 3 -8 2 -12
-4 -9 -6 4 -10 -5 -10 -20 0 -14 -4 -24 -9 -21 -4 3 -7 -6 -5 -20 2 -19 -1
-24 -12 -20 -7 3 -13 2 -12 -2 5 -17 -14 -82 -22 -77 -5 3 -7 -4 -5 -15 2 -11
-1 -20 -6 -20 -5 0 -9 -8 -7 -17 2 -10 -2 -17 -8 -16 -7 1 -11 -3 -11 -10 1
-37 -4 -57 -13 -52 -6 4 -10 -7 -10 -25 0 -17 -4 -29 -9 -26 -5 4 -8 -5 -7
-19 2 -13 0 -22 -5 -20 -11 7 -22 -32 -13 -46 4 -8 3 -9 -4 -5 -8 5 -12 0 -12
-13 0 -12 -6 -21 -12 -21 -10 0 -10 -2 0 -9 11 -7 10 -9 -3 -15 -9 -3 -13 -10
-10 -16 3 -5 0 -10 -7 -10 -9 0 -9 -3 2 -10 10 -6 11 -10 3 -10 -7 0 -13 -7
-13 -16 0 -9 -5 -12 -12 -8 -7 4 -8 3 -4 -4 4 -7 4 -18 -1 -24 -4 -7 -8 -17
-9 -23 -3 -24 -17 -55 -25 -55 -4 0 -6 -9 -4 -20 2 -11 0 -20 -5 -20 -4 0 -11
-7 -14 -16 -4 -9 -2 -13 5 -8 6 3 4 -5 -5 -18 -9 -14 -13 -28 -9 -33 5 -4 -1
-5 -11 -1 -16 5 -17 4 -7 -8 10 -11 8 -17 -6 -25 -14 -8 -15 -11 -3 -11 12 0
11 -3 -3 -11 -15 -9 -16 -13 -5 -27 8 -10 9 -13 1 -9 -6 4 -14 3 -18 -3 -3 -5
0 -10 7 -11 7 0 4 -4 -7 -9 -11 -5 -14 -9 -7 -9 10 -1 10 -5 -2 -17 -9 -8 -14
-20 -11 -25 4 -5 2 -9 -4 -9 -5 0 -8 -11 -7 -25 2 -13 -1 -22 -5 -19 -8 5 -13
-10 -10 -28 0 -5 -4 -8 -10 -8 -5 0 -7 -4 -4 -10 3 -5 2 -10 -4 -10 -6 0 -8
-6 -5 -14 3 -7 -2 -20 -10 -29 -8 -8 -12 -17 -9 -20 3 -3 -5 -23 -18 -43 -14
-23 -17 -34 -8 -29 12 8 12 6 -1 -9 -8 -10 -16 -27 -17 -39 -2 -12 -9 -25 -16
-29 -6 -4 -8 -8 -3 -8 5 0 3 -6 -3 -13 -6 -8 -8 -17 -4 -20 3 -4 1 -7 -5 -7
-6 0 -9 -6 -6 -14 3 -8 1 -17 -5 -21 -6 -3 -11 -15 -11 -26 0 -10 -5 -19 -11
-19 -5 0 -7 -4 -4 -10 3 -5 2 -10 -4 -10 -6 0 -8 -6 -5 -14 3 -7 -2 -21 -11
-30 -12 -12 -13 -16 -3 -16 10 0 10 -2 -1 -9 -7 -5 -10 -14 -7 -20 4 -6 2 -11
-3 -11 -6 0 -11 -7 -11 -15 0 -8 -5 -15 -11 -15 -5 0 -8 -4 -5 -9 8 -12 -4
-42 -14 -36 -4 2 -6 -7 -4 -21 1 -15 -4 -28 -13 -31 -11 -4 -12 -8 -3 -13 9
-6 6 -14 -9 -29 -12 -12 -16 -21 -9 -21 10 0 10 -2 0 -9 -8 -4 -13 -11 -13
-15 3 -19 -1 -24 -18 -29 -10 -2 -25 0 -34 4 -10 6 -18 5 -22 -1 -5 -8 -12 -7
-23 2 -12 10 -14 10 -8 1 5 -10 -3 -13 -29 -13 -26 0 -34 -3 -29 -12 6 -10 4
-10 -8 0 -12 9 -18 10 -23 2 -5 -8 -11 -8 -21 1 -9 7 -14 8 -14 1 0 -6 -11 -9
-25 -8 -14 2 -30 -3 -36 -10 -8 -9 -17 -11 -29 -4 -11 6 -21 5 -28 -2 -9 -9
-12 -9 -12 2 0 9 -5 8 -15 -6 -8 -10 -15 -14 -14 -9 3 24 -2 27 -16 9 -8 -11
-15 -14 -15 -6 0 6 -5 12 -11 12 -5 0 -7 -5 -4 -10 4 -6 -3 -9 -17 -6 -13 2
-29 -2 -37 -8 -12 -9 -13 -8 -6 4 8 13 7 13 -8 1 -10 -8 -38 -14 -63 -14 -24
0 -47 -4 -50 -9 -3 -5 -13 -3 -22 4 -13 11 -14 11 -8 0 6 -11 -1 -13 -32 -11
-23 2 -45 -1 -49 -6 -5 -4 -2 -5 6 0 10 6 12 4 6 -4 -5 -9 -10 -10 -18 -2 -14
14 -30 14 -22 1 8 -13 -18 -8 -27 5 -4 6 -8 1 -8 -10 0 -17 -2 -17 -10 -5 -7
11 -10 11 -10 2 0 -9 -12 -12 -40 -9 -22 2 -43 1 -45 -3 -2 -4 -19 -7 -36 -8
-18 0 -36 -7 -40 -14 -7 -11 -9 -10 -9 1 0 11 -3 11 -15 1 -12 -10 -15 -10
-15 1 0 12 -2 12 -9 1 -4 -8 -11 -13 -15 -13 -31 4 -56 -1 -50 -10 3 -6 -6 -3
-22 7 -29 18 -29 18 -14 -1 8 -11 10 -17 6 -13 -5 4 -16 2 -24 -5 -13 -10 -14
-9 -7 2 6 11 2 12 -21 7 -16 -5 -37 -9 -47 -11 -9 -2 -22 -7 -29 -11 -7 -5 -8
-3 -3 7 7 12 6 12 -7 1 -13 -10 -17 -10 -21 0 -4 9 -6 7 -6 -4 -1 -11 -7 -15
-22 -11 -12 4 -25 0 -30 -8 -5 -8 -9 -9 -9 -3 0 7 -11 11 -24 10 -15 0 -21 -5
-16 -11 5 -6 -6 -9 -31 -9 -23 1 -39 -3 -39 -10 0 -7 -3 -7 -8 -1 -9 13 -35
18 -28 6 4 -5 -2 -10 -11 -9 -10 0 -33 -5 -50 -10 -22 -7 -33 -7 -33 -1 0 6
-7 3 -16 -5 -21 -21 -30 -20 -13 1 13 17 13 17 -12 1 -24 -15 -27 -15 -44 0
-10 9 -15 12 -11 5 8 -14 -6 -23 -46 -30 -22 -3 -28 -1 -23 8 5 8 4 10 -4 5
-6 -4 -9 -11 -6 -16 5 -8 -2 -10 -53 -11 -12 0 -22 -5 -22 -10 0 -6 -8 -6 -20
1 -14 7 -20 8 -20 0 0 -6 -11 -8 -25 -6 -13 3 -27 1 -30 -4 -3 -5 -13 -6 -22
-3 -11 4 -14 3 -9 -5 5 -8 2 -10 -8 -6 -8 3 -21 2 -28 -2 -7 -5 -23 -7 -35 -5
-13 1 -23 -2 -23 -7 0 -5 -11 -8 -25 -7 -14 2 -25 -1 -25 -7 0 -6 -7 -7 -16
-4 -10 4 -13 2 -8 -6 5 -8 2 -9 -9 -5 -10 4 -16 2 -14 -6 1 -7 -6 -11 -17 -9
-11 2 -15 -1 -11 -7 3 -7 -3 -11 -15 -11 -12 0 -19 -4 -16 -9 3 -5 -12 -18
-35 -29 -23 -12 -35 -22 -27 -25 13 -5 -17 -11 -36 -8 -5 1 -3 -5 4 -14 11
-13 10 -14 -5 -9 -13 5 -16 4 -11 -4 4 -7 2 -12 -4 -12 -6 0 -8 -5 -4 -12 5
-8 0 -7 -11 2 -11 9 -16 10 -11 3 4 -7 2 -13 -3 -13 -6 0 -10 -6 -8 -12 1 -7
-3 -12 -10 -11 -7 2 -10 -4 -6 -13 3 -9 0 -14 -8 -12 -8 2 -13 -3 -12 -9 2 -7
-1 -13 -6 -13 -11 0 -41 -57 -41 -77 0 -8 -5 -11 -12 -7 -8 5 -9 0 -5 -15 4
-16 2 -21 -8 -17 -8 3 -12 -2 -10 -12 1 -9 -2 -23 -8 -30 -9 -12 -16 -40 -19
-79 -1 -7 -6 -13 -12 -13 -6 0 -4 -5 4 -10 8 -5 10 -10 4 -10 -13 0 -13 -3
-15 -96 -1 -39 1 -76 5 -82 4 -7 3 -12 -1 -12 -14 0 -8 -47 8 -66 12 -16 12
-17 -1 -9 -13 8 -13 7 -1 -8 11 -14 11 -17 0 -17 -8 0 -6 -6 7 -16 10 -8 12
-12 4 -8 -12 5 -12 4 -3 -6 6 -7 9 -19 6 -28 -4 -9 -2 -13 4 -9 6 4 11 -4 11
-19 0 -15 6 -30 13 -35 12 -7 11 -9 -1 -9 -12 0 -13 -2 -1 -9 8 -5 10 -14 6
-21 -5 -9 -4 -11 3 -6 8 5 12 0 12 -13 0 -12 5 -21 12 -21 6 0 8 -3 5 -7 -4
-3 1 -12 11 -20 9 -8 11 -11 4 -8 -11 6 -11 3 -1 -13 7 -12 16 -19 20 -16 5 2
6 -5 4 -16 -2 -11 0 -18 6 -15 5 4 9 -1 9 -10 0 -9 5 -13 10 -10 6 3 10 -3 10
-15 0 -12 5 -18 10 -15 6 3 10 -3 10 -14 0 -12 6 -20 13 -18 6 1 11 -4 10 -10
-2 -7 4 -13 13 -13 8 0 12 -5 9 -10 -3 -5 1 -10 10 -10 9 0 13 -4 10 -10 -3
-5 -1 -10 5 -10 6 0 8 -4 5 -10 -3 -6 1 -7 9 -4 9 3 16 1 16 -6 0 -6 5 -8 12
-4 7 4 8 3 4 -4 -4 -7 7 -20 28 -33 20 -12 36 -26 36 -32 0 -6 3 -7 7 -4 3 4
13 -2 21 -14 8 -11 20 -18 28 -15 7 3 16 -4 20 -16 3 -11 9 -17 13 -12 3 5 12
10 20 12 12 3 12 0 1 -13 -11 -13 -10 -15 4 -9 9 3 16 1 16 -5 0 -6 7 -8 15
-5 8 4 15 1 15 -6 0 -6 4 -8 10 -5 12 7 52 -19 45 -28 -3 -4 0 -3 6 2 10 8 66
-6 79 -19 3 -3 12 -5 20 -5 8 1 32 -5 54 -12 35 -12 37 -12 25 4 -13 15 -12
15 7 5 12 -6 24 -8 28 -5 3 3 6 0 6 -8 0 -11 2 -11 10 1 9 13 10 13 10 0 0
-13 1 -13 10 0 9 13 10 13 10 0 0 -13 1 -13 10 0 9 13 10 13 10 0 0 -13 1 -13
10 0 9 13 10 13 10 0 0 -13 1 -13 10 0 9 13 10 13 10 0 0 -13 1 -13 10 0 5 8
10 10 10 4 0 -6 7 -11 15 -11 8 0 12 4 9 9 -3 4 -1 8 5 8 5 0 13 -5 16 -10 4
-6 12 -7 18 -3 7 4 33 8 58 8 25 1 50 4 56 8 5 4 13 3 17 0 4 -4 13 -8 22 -9
13 -2 13 0 2 13 -11 14 -11 15 8 5 16 -8 24 -8 34 1 10 10 11 9 5 -3 -8 -13
-7 -13 8 -1 14 11 17 11 17 0 0 -11 2 -11 8 -1 5 8 16 10 27 6 10 -4 16 -3 13
2 -3 5 7 9 23 10 15 1 26 -3 23 -7 -9 -14 3 -10 20 7 9 8 16 11 16 5 0 -6 5
-11 11 -11 5 0 8 4 5 8 -3 5 11 7 30 6 25 -2 33 0 27 9 -4 7 0 7 10 -2 12 -9
17 -10 17 -2 0 7 5 9 10 6 6 -4 17 -1 25 5 12 10 15 10 15 -1 0 -11 2 -11 10
1 5 8 10 11 10 6 0 -5 7 -3 15 4 13 11 15 10 9 -6 -5 -17 -4 -17 8 -3 7 9 19
14 27 11 7 -2 17 2 22 9 5 8 9 9 9 3 0 -6 7 -11 15 -11 8 0 11 5 8 10 -4 6 5
8 21 5 14 -3 26 -1 26 4 0 5 5 6 10 3 6 -4 18 -1 27 7 14 11 16 11 8 -2 -7
-12 -6 -13 6 -4 8 5 30 11 49 13 19 1 39 6 43 11 13 12 47 0 47 -16 0 -8 -5
-14 -11 -14 -5 0 -8 -4 -5 -9 7 -10 -15 -71 -26 -71 -4 0 -5 -9 -3 -20 2 -11
0 -20 -6 -20 -5 0 -9 -7 -9 -15 0 -8 -6 -15 -12 -15 -10 0 -9 -3 1 -9 8 -5 9
-10 2 -12 -6 -2 -12 -15 -15 -29 -2 -14 -9 -24 -16 -22 -6 1 -9 -2 -5 -8 4 -6
1 -18 -7 -27 -9 -12 -9 -15 -1 -9 9 5 11 2 7 -8 -3 -9 -10 -14 -14 -11 -5 3
-6 -5 -2 -17 3 -14 1 -19 -6 -14 -8 5 -10 1 -5 -10 4 -10 2 -15 -4 -11 -5 3
-9 -4 -9 -16 1 -12 -4 -21 -10 -20 -7 1 -10 -6 -7 -17 3 -12 0 -20 -7 -20 -10
0 -10 -3 0 -15 10 -12 10 -15 -3 -15 -10 0 -14 -6 -11 -15 4 -8 1 -15 -5 -15
-6 0 -10 -3 -10 -7 3 -19 -2 -34 -9 -29 -5 3 -8 -8 -7 -24 1 -18 -4 -31 -14
-35 -13 -5 -14 -7 -1 -15 12 -8 12 -10 -4 -10 -15 0 -16 -3 -7 -14 9 -11 9
-16 0 -22 -8 -5 -9 -3 -4 6 6 9 4 11 -4 6 -7 -5 -10 -14 -7 -22 3 -8 1 -14 -4
-14 -5 0 -6 -7 -3 -17 4 -11 3 -14 -5 -9 -8 5 -10 2 -6 -8 3 -9 1 -16 -6 -16
-6 0 -8 -4 -5 -10 3 -5 1 -10 -6 -10 -8 0 -7 -5 2 -17 10 -11 10 -14 2 -9 -8
4 -13 1 -13 -9 0 -9 -4 -14 -8 -11 -4 2 -9 -4 -10 -15 -4 -43 -6 -49 -15 -49
-6 0 -8 -3 -4 -6 3 -4 0 -19 -8 -34 -8 -15 -11 -30 -8 -34 4 -3 1 -6 -5 -6 -7
0 -11 -6 -9 -12 1 -7 -4 -12 -11 -10 -10 2 -10 -2 -2 -18 9 -17 8 -20 -7 -20
-15 0 -16 -2 -3 -10 13 -9 7 -14 -12 -11 -4 0 -5 -6 -2 -14 4 -9 1 -22 -6 -30
-7 -8 -10 -22 -6 -30 3 -9 2 -13 -3 -10 -5 3 -12 1 -16 -5 -3 -5 0 -10 7 -10
8 0 6 -5 -5 -11 -9 -6 -15 -14 -12 -19 3 -5 1 -11 -5 -15 -6 -4 -8 -11 -5 -16
4 -5 1 -9 -5 -9 -7 0 -9 -7 -6 -15 3 -9 -1 -18 -10 -22 -13 -5 -13 -7 -2 -14
10 -7 11 -9 0 -9 -7 0 -10 -4 -7 -10 3 -5 1 -10 -4 -10 -6 0 -11 -9 -11 -21 0
-12 -4 -17 -11 -13 -7 4 -7 -1 1 -16 10 -18 9 -21 -1 -15 -9 6 -11 3 -6 -9 5
-11 3 -15 -5 -10 -7 5 -9 2 -5 -9 3 -9 2 -17 -4 -19 -5 -2 -11 -13 -14 -26 -2
-12 -11 -29 -19 -37 -8 -9 -13 -24 -11 -36 2 -11 -2 -22 -10 -25 -11 -5 -12
-11 -4 -26 7 -12 7 -18 1 -14 -12 7 -28 -23 -31 -60 0 -8 -5 -13 -10 -10 -5 4
-8 -5 -6 -19 1 -14 -2 -25 -7 -25 -6 0 -8 -7 -4 -15 3 -9 -3 -23 -14 -32 -15
-13 -16 -19 -7 -25 9 -6 9 -8 0 -8 -7 0 -13 -7 -13 -16 0 -8 -4 -13 -9 -10 -4
3 -7 -5 -6 -19 2 -13 -3 -26 -11 -29 -7 -3 -11 -12 -8 -21 3 -8 1 -15 -6 -15
-6 0 -9 -4 -5 -9 3 -5 1 -12 -5 -16 -6 -4 -8 -11 -5 -16 4 -5 1 -9 -5 -9 -6 0
-9 -4 -6 -9 8 -13 -4 -42 -15 -36 -4 3 -6 -4 -4 -16 3 -12 -5 -35 -17 -52 -12
-17 -16 -27 -8 -22 8 5 4 -5 -8 -22 -12 -17 -23 -43 -24 -57 -1 -14 -6 -26
-11 -26 -4 0 -6 -4 -3 -9 3 -5 -4 -21 -16 -37 -13 -15 -17 -25 -11 -21 21 13
7 -25 -15 -44 -12 -9 -17 -19 -12 -21 7 -2 6 -14 -4 -33 -8 -17 -16 -37 -18
-45 -2 -8 -10 -22 -19 -32 -9 -11 -15 -30 -13 -43 1 -14 -2 -25 -8 -25 -6 0
-8 -13 -6 -30 3 -16 2 -30 -2 -30 -4 0 -6 -10 -5 -22 1 -13 -3 -26 -9 -30 -7
-5 -7 -8 2 -8 7 0 10 -5 6 -11 -12 -20 -12 -89 0 -89 7 0 7 -3 -1 -8 -13 -8
-12 -29 1 -51 6 -9 5 -12 -1 -8 -5 3 -10 0 -10 -8 0 -8 4 -12 8 -10 4 3 7 -7
8 -23 0 -15 0 -37 1 -49 0 -13 5 -23 11 -23 7 0 7 -6 -2 -17 -12 -14 -12 -16
0 -8 11 6 13 3 9 -13 -4 -14 -2 -20 5 -15 6 4 8 -2 5 -15 -4 -12 -2 -20 3 -16
8 5 13 -9 10 -28 0 -5 4 -8 10 -8 8 0 7 -6 -2 -17 -8 -9 -9 -14 -3 -10 7 4 18
-1 25 -10 12 -14 12 -16 -1 -9 -12 6 -11 4 1 -6 9 -7 14 -19 11 -27 -3 -8 0
-11 6 -7 5 3 13 -1 16 -10 4 -10 2 -13 -6 -8 -7 4 -8 3 -4 -4 4 -7 15 -12 24
-12 15 0 15 -2 2 -10 -13 -8 -12 -10 4 -10 12 0 16 -5 13 -15 -4 -8 -1 -17 5
-21 7 -4 8 -3 4 4 -4 7 -5 12 -2 12 3 0 13 -15 21 -33 8 -17 13 -24 10 -14 -7
26 4 20 15 -9 6 -15 14 -22 22 -18 8 5 9 2 5 -9 -4 -11 -1 -17 7 -17 8 0 16
-7 20 -15 3 -8 17 -20 31 -27 15 -7 24 -17 21 -25 -3 -8 -2 -11 3 -8 5 3 12 1
16 -5 4 -6 11 -8 16 -5 5 4 9 1 9 -4 0 -6 7 -11 15 -11 8 0 15 -4 15 -10 0 -5
5 -10 11 -10 7 0 19 -8 28 -17 20 -22 41 -27 42 -10 0 6 4 2 10 -11 5 -13 13
-21 18 -18 5 4 16 -1 24 -9 12 -11 17 -12 20 -2 4 9 6 9 6 0 1 -7 7 -13 15
-13 7 0 18 -6 24 -13 6 -7 25 -12 42 -11 16 1 30 -2 30 -7 0 -5 5 -9 11 -9 5
0 7 5 3 12 -4 7 8 1 26 -12 18 -13 30 -19 26 -12 -4 7 -2 12 3 12 6 0 11 -5
11 -11 0 -8 5 -8 15 1 8 7 15 8 15 3 0 -5 46 -10 105 -11 57 0 109 -3 114 -6
5 -3 14 1 21 9 8 10 18 11 36 4 14 -5 23 -5 20 0 -3 5 3 11 14 14 11 3 20 0
20 -6 0 -7 5 -5 10 3 5 8 10 11 10 6 0 -4 11 -1 25 8 23 15 24 15 19 -1 -5
-15 -3 -15 10 1 9 11 16 16 16 12 0 -5 7 -3 15 4 12 10 15 10 16 -1 0 -8 4 -5
9 6 5 12 9 14 9 6 1 -12 4 -11 14 2 6 9 23 19 37 21 14 3 27 5 30 6 3 2 9 2
13 1 5 -1 6 3 2 9 -5 9 1 12 21 9 3 0 12 8 21 18 8 10 12 12 8 3 -4 -8 4 -2
19 14 14 16 26 26 26 21 0 -4 9 3 21 16 11 13 17 18 13 10 -5 -10 -3 -12 5 -7
7 5 10 15 7 23 -3 8 -1 11 4 8 6 -3 10 -1 10 5 0 6 4 8 10 5 5 -3 10 1 10 10
0 9 4 14 9 11 5 -3 12 1 15 10 3 8 11 12 16 9 6 -4 10 -3 9 2 -3 18 1 34 9 30
4 -3 13 1 20 9 7 8 9 14 5 14 -4 0 3 7 15 16 12 8 20 20 17 25 -4 5 -1 9 4 9
6 0 10 3 10 8 -4 21 2 32 13 26 8 -5 9 -2 5 9 -4 12 -1 17 11 17 13 0 14 2 3
9 -11 7 -10 11 5 20 11 6 15 11 9 11 -5 0 -3 5 5 10 11 7 11 10 2 10 -10 0
-10 5 2 22 9 12 16 31 16 41 0 10 4 16 9 13 5 -4 7 4 3 16 -3 14 -1 19 6 14 8
-5 10 -1 5 10 -5 13 -3 15 8 9 11 -7 11 -5 -1 10 -12 15 -12 17 -1 10 11 -6
13 -4 8 9 -4 10 -3 15 3 11 6 -3 10 1 10 9 0 9 6 16 13 16 8 0 7 4 -3 10 -8 5
-10 10 -5 10 6 0 15 11 22 25 6 14 7 22 1 19 -5 -3 -2 8 6 25 9 17 15 33 14
37 -2 3 5 10 16 16 14 8 15 12 6 18 -10 6 -8 12 8 25 11 10 18 24 15 31 -3 8
1 14 8 14 12 0 12 2 1 9 -11 6 -10 10 3 15 10 3 15 12 11 21 -3 8 -1 15 4 15
5 0 7 9 5 20 -2 11 0 18 6 15 8 -6 11 0 13 34 1 8 10 18 21 22 11 4 14 8 6 8
-9 1 -10 5 -4 13 6 7 9 21 8 30 -2 10 2 15 11 11 9 -3 12 2 9 16 -2 12 0 21 6
21 5 0 8 3 8 8 -3 19 2 33 10 28 5 -4 8 2 7 11 -2 10 2 21 8 25 7 5 6 8 -4 8
-13 0 -13 1 0 10 8 5 15 13 16 17 3 29 18 62 31 67 12 5 13 9 4 20 -8 10 -8
16 3 25 7 6 21 36 31 66 9 30 21 53 26 49 5 -3 6 3 2 12 -5 12 -3 15 6 9 10
-6 11 -3 2 14 -9 17 -9 21 1 19 8 -2 12 4 10 15 -2 9 3 20 11 23 8 3 13 16 11
30 -1 13 2 22 7 18 5 -3 9 2 9 10 0 8 8 20 18 25 9 6 11 11 5 11 -16 0 -12 21
6 36 8 7 12 20 8 33 -5 19 -3 20 11 9 12 -10 14 -10 8 0 -8 14 14 83 25 77 4
-3 7 1 6 8 -1 35 4 48 15 41 8 -5 7 0 -2 11 -9 11 -10 16 -2 11 10 -6 14 -1
11 20 0 3 10 14 22 25 15 13 17 19 8 19 -10 1 -9 4 4 11 9 5 17 17 17 24 0 8
4 15 9 15 5 0 12 14 16 30 4 18 11 27 17 24 6 -4 8 -2 5 3 -4 6 1 28 10 49 9
22 16 42 15 47 -1 4 6 7 16 7 13 0 14 2 4 9 -11 6 -10 11 3 24 8 9 16 19 15
22 0 3 0 6 1 8 0 1 2 10 4 20 2 10 11 27 19 36 9 10 13 21 9 24 -3 4 0 7 8 7
11 0 11 2 -1 10 -8 5 -10 10 -4 10 11 0 28 35 25 53 -1 4 4 7 9 7 6 0 10 9 10
20 0 11 5 20 11 20 5 0 8 4 4 9 -3 5 -1 12 5 16 6 4 8 11 5 16 -4 5 -2 9 4 9
5 0 8 9 6 21 -3 15 0 19 11 15 8 -3 13 -2 9 3 -3 5 1 12 7 14 10 4 9 6 -1 6
-11 1 -11 4 -1 16 7 8 9 15 4 15 -4 0 1 7 12 16 10 8 14 13 7 10 -6 -3 -3 12
8 33 10 22 19 45 19 51 0 6 4 9 9 6 5 -4 8 2 7 11 -2 10 4 24 13 31 12 10 12
12 1 6 -12 -7 -13 -5 -3 8 7 8 10 18 6 21 -3 4 2 7 13 7 14 0 16 2 6 9 -11 6
-10 10 3 15 15 5 15 9 4 23 -12 14 -12 16 0 8 11 -6 13 -4 8 9 -4 10 -3 15 3
11 6 -3 10 1 10 10 0 9 4 13 10 10 6 -3 10 -1 10 4 0 6 -6 11 -12 11 -9 0 -9
3 -2 8 5 4 16 23 23 42 8 19 23 44 35 54 17 15 17 18 4 13 -10 -4 -18 -2 -18
3 0 6 5 10 11 10 6 0 8 7 5 16 -4 9 -2 13 5 8 7 -4 10 -1 7 6 -2 8 4 22 14 32
9 9 15 24 12 33 -4 8 -1 15 5 15 6 0 10 3 10 8 -3 20 2 32 13 26 6 -4 8 -3 5
3 -9 14 12 73 25 73 5 0 7 4 3 9 -3 6 4 26 15 46 11 20 16 33 10 30 -7 -4 -6
1 1 13 7 12 15 19 19 17 3 -2 6 11 7 28 2 18 7 33 13 35 6 2 8 8 4 13 -3 5 -1
9 5 9 6 0 8 7 5 15 -4 8 -1 15 5 15 6 0 11 8 11 18 0 10 5 23 12 30 7 7 8 12
3 12 -4 0 0 10 11 22 10 12 13 18 5 13 -8 -5 -6 3 5 20 10 15 20 37 21 49 2
12 11 27 20 34 9 6 13 12 7 13 -5 0 0 4 11 8 11 5 25 4 32 -1 7 -6 14 -5 19 3
5 8 3 10 -7 4 -8 -5 -11 -4 -6 1 5 5 25 9 45 10 21 1 36 6 35 12 -2 6 4 9 12
6 8 -4 12 -11 8 -18 -3 -6 3 -3 14 7 16 14 22 15 26 5 4 -10 6 -10 6 0 1 7 15
12 34 12 18 0 39 6 46 13 11 10 12 9 6 -3 -6 -12 -5 -13 6 -2 7 6 17 12 22 12
4 0 5 -6 1 -12 -6 -10 -4 -10 8 0 9 7 38 14 66 16 27 2 54 6 60 10 7 4 12 2
12 -4 0 -7 6 -8 19 -1 10 6 35 9 55 7 20 -1 39 1 42 6 3 5 12 4 20 -3 8 -6 14
-7 14 -2 0 5 16 9 35 8 19 0 35 4 35 10 0 5 5 3 10 -5 8 -12 10 -12 10 -1 0
11 3 11 17 0 11 -10 14 -10 9 -1 -4 7 -1 12 9 12 10 0 13 -5 9 -12 -5 -9 -2
-9 9 1 14 11 20 11 34 0 11 -10 14 -10 9 -1 -7 13 11 16 68 12 21 -1 26 2 20
12 -6 10 -4 10 9 -1 14 -11 17 -11 17 0 0 11 2 11 9 0 8 -12 12 -12 25 -2 12
11 16 11 16 1 0 -9 4 -9 17 1 15 12 16 12 8 -1 -8 -13 -7 -13 8 -1 14 11 17
11 17 0 0 -12 2 -12 9 0 6 9 21 12 45 9 20 -2 36 -2 36 2 0 3 25 4 55 4 31 -1
58 3 61 8 3 5 12 4 20 -3 11 -9 14 -8 14 2 0 11 2 11 10 -1 7 -11 10 -11 10
-2 0 10 5 10 21 1 17 -9 20 -8 14 2 -6 8 -4 11 7 6 9 -3 21 0 28 6 10 9 11 9
6 0 -3 -6 -2 -14 4 -18 5 -3 10 -1 10 6 0 6 8 9 20 6 11 -3 20 -2 20 3 0 7 53
4 77 -4 7 -3 10 1 6 11 -5 13 -3 14 15 4 15 -8 23 -8 28 0 5 8 9 8 14 -1 6 -9
12 -9 29 0 17 8 26 8 36 0 7 -6 16 -7 19 -2 2 4 28 8 55 8 28 -1 51 4 51 9 0
6 5 3 10 -5 8 -12 10 -12 10 -1 0 11 3 11 15 1 10 -8 15 -9 15 -1 0 7 8 8 26
0 25 -9 26 -8 13 7 -13 16 -12 16 6 7 18 -9 33 -9 53 -3 18 6 38 5 50 -4 7 -5
12 -4 12 2 0 12 33 10 42 -3 5 -7 8 -6 8 0 0 6 11 12 26 13 18 1 23 -2 18 -11
-6 -8 -3 -8 9 1 9 8 21 11 27 7 5 -3 10 -1 10 6 0 8 4 8 15 -1 12 -10 15 -10
15 1 0 11 2 11 10 -1 5 -8 10 -10 10 -4 0 10 60 10 87 0 8 -3 10 1 6 11 -4 11
-2 14 5 9 18 -11 52 -16 52 -8 0 4 9 8 20 8 11 0 20 -5 20 -11 0 -5 5 -3 10 5
7 11 10 11 10 2 0 -10 5 -10 20 -2 15 8 20 8 20 -2 0 -8 3 -9 8 -3 10 14 73
17 89 3 11 -8 12 -7 7 6 -5 14 -3 15 20 6 19 -7 26 -6 26 3 0 8 4 7 10 -3 8
-13 10 -12 10 4 0 20 0 20 15 0 8 -10 15 -14 15 -8 0 7 13 10 30 8 16 -2 41 1
54 6 13 5 27 6 31 2 10 -10 29 -9 37 3 5 6 8 5 8 -4 0 -11 3 -11 15 -1 11 9
15 9 15 1 0 -7 5 -9 12 -5 18 11 61 12 76 1 8 -6 12 -6 12 2 0 7 10 10 25 7
14 -3 25 0 25 5 0 6 5 7 10 4 6 -4 7 -12 3 -18 -4 -7 0 -6 10 2 9 7 23 11 30
8 8 -3 20 -1 27 3 8 5 22 4 32 -1 13 -7 18 -6 18 2 0 8 5 7 17 -2 15 -12 16
-12 10 5 -6 15 -5 17 6 7 14 -11 122 -10 133 2 4 3 18 -2 32 -11 15 -9 23 -12
19 -6 -4 7 0 15 10 18 9 4 19 2 23 -4 5 -8 15 -8 34 0 15 5 25 6 22 2 -2 -4 4
-8 14 -8 10 0 16 4 14 8 -3 4 -1 8 5 8 5 0 13 -5 16 -10 4 -7 13 -6 27 1 15 8
22 8 28 -1 6 -9 9 -9 12 1 4 11 9 12 26 2 12 -7 23 -9 27 -3 3 5 41 8 85 7 44
-1 80 1 80 5 0 4 11 3 25 -2 14 -5 25 -6 25 -2 0 10 123 8 140 -3 9 -6 11 -4
5 5 -6 9 -2 10 15 5 15 -5 20 -4 16 4 -5 7 -1 9 8 5 9 -3 13 -11 9 -18 -4 -6
1 -5 10 3 9 7 17 10 17 5 0 -5 5 -2 10 6 5 8 10 10 10 3 0 -12 24 -12 36 0 4
4 14 2 21 -5 11 -9 16 -9 23 1 5 9 10 10 14 2 5 -7 13 -8 25 -1 12 6 22 5 29
-2 9 -9 12 -9 12 1 0 11 3 11 17 0 19 -16 23 -16 34 3 7 10 9 10 9 -2 0 -13 1
-13 10 0 8 12 10 12 10 1 0 -11 3 -11 15 -1 12 10 15 10 15 0 0 -10 3 -10 15
0 12 10 15 10 15 -1 0 -12 2 -12 9 0 6 9 10 10 16 2 5 -9 10 -9 20 -1 10 8 15
8 20 0 5 -8 10 -8 20 0 10 8 15 8 20 0 5 -8 13 -6 26 6 19 17 20 17 13 0 -6
-16 -4 -17 14 -7 26 14 35 14 26 0 -5 -8 -1 -8 13 0 14 7 23 7 30 0 8 -8 13
-7 17 0 4 6 12 11 17 11 6 0 7 -6 3 -12 -5 -8 -1 -8 10 1 15 13 19 13 27 0 5
-8 9 -9 9 -2 0 12 24 12 36 0 4 -3 15 -2 26 4 11 6 22 8 25 5 4 -3 13 0 21 7
10 8 13 8 9 1 -4 -7 0 -14 8 -18 8 -3 17 0 21 6 5 7 2 8 -6 3 -9 -5 -11 -4 -6
4 6 9 11 9 22 0 8 -6 14 -8 14 -3 0 5 5 2 10 -6 5 -8 10 -10 10 -4 0 14 82 15
99 1 12 -9 13 -9 7 1 -8 13 19 13 41 -1 6 -4 14 -3 18 3 9 15 58 13 49 -2 -4
-7 3 -4 16 7 13 11 20 14 16 7 -6 -10 2 -12 35 -8 24 3 49 0 56 -5 7 -6 18 -7
25 -3 22 14 69 14 61 1 -4 -7 1 -6 11 2 15 13 19 13 26 0 7 -11 12 -11 22 -1
15 15 32 16 22 0 -5 -7 -3 -8 7 -2 20 12 70 14 63 2 -4 -6 3 -5 14 1 25 13 35
14 28 3 -3 -5 1 -9 9 -9 8 0 15 4 15 8 0 5 11 4 24 -1 13 -5 27 -6 31 -2 10
10 39 8 48 -3 4 -6 10 -5 16 4 6 9 10 10 16 2 4 -7 12 -8 18 -4 18 12 120 5
145 -10 8 -6 10 -3 5 9 -5 13 -3 15 13 7 10 -6 25 -8 32 -6 6 3 12 -1 12 -7 0
-9 4 -10 13 -2 7 6 24 8 37 5 18 -5 21 -3 15 8 -7 11 -6 12 7 2 8 -7 29 -11
46 -9 17 2 34 1 36 -2 3 -2 34 -4 68 -4 35 0 69 -5 77 -11 11 -9 13 -9 8 -1
-4 7 0 15 9 18 9 4 13 2 8 -5 -4 -8 3 -9 26 -4 22 5 30 4 26 -3 -7 -11 25 -9
44 3 6 3 10 1 10 -6 0 -8 4 -8 15 1 12 10 15 10 15 0 0 -10 3 -10 15 0 8 7 15
8 15 3 0 -5 9 -9 20 -9 11 0 20 5 20 11 0 5 5 3 10 -5 8 -12 13 -13 29 -3 12
7 22 9 26 3 3 -5 18 -8 33 -6 15 1 36 -5 46 -13 11 -9 16 -10 12 -3 -9 15 50
17 59 2 5 -8 11 -7 21 1 10 8 18 8 27 0 10 -8 17 -7 25 1 9 9 12 9 12 -1 0
-11 3 -11 15 -1 12 10 15 10 15 0 0 -10 3 -10 14 -1 10 8 16 9 21 1 3 -6 11
-7 17 -4 7 5 9 -2 4 -22 -3 -16 -11 -55 -18 -86 -6 -32 -15 -58 -19 -58 -5 0
-6 -6 -3 -14 3 -8 1 -17 -5 -20 -6 -4 -8 -13 -4 -21 3 -8 0 -15 -6 -15 -6 0
-8 -7 -5 -15 4 -8 2 -21 -4 -28 -5 -6 -8 -20 -7 -29 2 -10 -1 -18 -6 -18 -5 0
-8 -3 -8 -7 1 -5 1 -10 -1 -13 -1 -3 -4 -16 -6 -30 -3 -14 -9 -27 -15 -28 -6
-3 -6 -9 2 -18 6 -8 7 -14 2 -14 -8 0 -12 -15 -15 -57 -1 -7 -5 -13 -9 -13 -4
0 -8 -8 -8 -17 -1 -43 -7 -64 -21 -73 -12 -8 -12 -10 -1 -10 11 0 11 -3 1 -15
-7 -9 -14 -32 -16 -51 -2 -20 -9 -43 -16 -52 -11 -13 -11 -14 2 -7 13 8 13 6
2 -8 -8 -9 -11 -21 -7 -27 3 -5 2 -10 -4 -10 -5 0 -8 -11 -6 -25 1 -14 -2 -28
-8 -32 -6 -4 -7 -1 -2 7 5 9 4 11 -4 6 -9 -6 -9 -11 0 -22 9 -11 9 -14 0 -14
-7 0 -10 -4 -7 -9 4 -5 0 -12 -6 -14 -10 -4 -10 -6 -1 -6 9 -1 8 -10 -3 -36
-8 -19 -14 -37 -14 -40 0 -3 0 -6 -1 -7 0 -2 -2 -14 -5 -27 -2 -14 -9 -30 -15
-38 -7 -8 -8 -13 -1 -13 10 0 -4 -51 -22 -79 -7 -10 -6 -12 4 -6 10 6 11 4 4
-6 -5 -8 -9 -17 -10 -21 -1 -5 -3 -11 -4 -15 -1 -5 -3 -17 -4 -28 0 -12 -7
-19 -16 -17 -12 3 -12 1 -3 -9 8 -8 9 -19 2 -36 -5 -14 -7 -29 -3 -34 3 -5 1
-9 -5 -9 -5 0 -8 -11 -6 -25 1 -15 -4 -29 -14 -35 -13 -7 -13 -9 -1 -10 10 0
11 -3 3 -11 -6 -6 -9 -18 -6 -25 3 -8 1 -14 -5 -14 -5 0 -8 -11 -7 -25 2 -14
-1 -27 -5 -30 -5 -3 -6 -13 -3 -22 4 -11 3 -14 -5 -9 -7 4 -12 2 -12 -3 0 -6
6 -11 13 -11 9 0 8 -3 -2 -9 -7 -5 -11 -13 -7 -19 3 -6 2 -13 -4 -17 -5 -3
-10 -22 -10 -41 0 -23 -4 -33 -11 -28 -7 4 -7 -1 1 -16 11 -20 10 -22 -4 -17
-12 5 -15 3 -9 -6 11 -18 13 -37 3 -37 -5 0 -7 -9 -5 -20 2 -11 1 -20 -4 -20
-4 0 -8 -10 -8 -22 -2 -30 -7 -50 -16 -65 -5 -8 -3 -13 3 -13 7 0 6 -7 -3 -21
-8 -11 -13 -29 -10 -40 3 -12 0 -19 -8 -19 -11 0 -11 -2 1 -10 11 -7 11 -10 2
-10 -7 0 -11 -4 -8 -8 3 -5 -2 -21 -9 -36 -14 -26 -13 -28 3 -22 16 6 16 5 0
-7 -12 -10 -14 -17 -6 -31 8 -14 7 -17 -1 -12 -7 5 -11 -2 -11 -17 0 -13 -3
-26 -6 -30 -5 -5 -14 -72 -17 -129 -1 -10 -5 -18 -9 -18 -4 0 -5 -9 -3 -20 2
-11 0 -20 -5 -20 -5 0 -7 -7 -3 -16 3 -9 0 -20 -8 -25 -12 -7 -12 -9 0 -9 9 0
10 -4 4 -12 -6 -7 -10 -28 -9 -46 0 -17 -3 -32 -8 -32 -5 0 -6 -3 -3 -6 3 -4
2 -15 -4 -25 -7 -14 -6 -19 3 -19 10 0 10 -3 -1 -9 -8 -5 -11 -16 -8 -25 4 -9
2 -16 -2 -16 -5 0 -7 -9 -4 -20 3 -11 1 -20 -3 -20 -5 0 -10 -23 -10 -50 -1
-28 -8 -58 -15 -67 -12 -14 -12 -16 1 -8 13 8 13 7 1 -8 -11 -14 -11 -17 0
-17 9 0 10 -3 4 -8 -10 -7 -13 -24 -17 -89 -1 -18 -5 -33 -8 -33 -3 0 -7 -19
-8 -42 -3 -66 -4 -72 -15 -85 -5 -7 -5 -13 0 -13 5 0 9 -9 9 -20 0 -11 -4 -20
-8 -20 -6 0 -8 -11 -8 -73 0 -16 -3 -26 -7 -24 -5 3 -8 -6 -8 -19 0 -13 4 -24
9 -24 5 0 4 -6 -1 -12 -6 -7 -9 -23 -8 -36 1 -17 -2 -21 -14 -17 -11 3 -10 0
3 -10 11 -8 15 -15 9 -15 -6 0 -9 -11 -8 -25 2 -14 -2 -25 -8 -25 -8 0 -8 -3
1 -12 8 -8 8 -17 1 -30 -7 -14 -7 -23 1 -34 10 -11 9 -15 -2 -19 -9 -4 -13
-19 -12 -48 1 -23 -3 -48 -8 -54 -7 -9 -7 -13 1 -13 7 0 9 -5 5 -11 -7 -12
-11 -51 -18 -155 -1 -28 -6 -56 -10 -62 -4 -7 -1 -12 6 -12 8 0 9 -3 3 -8 -6
-4 -10 -23 -9 -42 0 -19 -4 -38 -10 -42 -8 -5 -7 -8 1 -8 7 0 11 -6 9 -12 -3
-7 -7 -28 -10 -46 -4 -24 -3 -31 7 -26 9 5 9 4 0 -6 -6 -7 -9 -19 -6 -28 5
-11 3 -13 -7 -7 -9 6 -11 4 -5 -6 12 -19 14 -49 3 -55 -4 -3 -4 -13 1 -23 5
-9 6 -22 2 -29 -4 -6 -7 -38 -6 -71 1 -39 -3 -58 -9 -53 -6 3 -5 -1 1 -9 10
-12 10 -18 1 -27 -9 -9 -9 -12 2 -12 9 0 11 -3 5 -8 -5 -4 -10 -23 -10 -42 0
-19 5 -38 10 -42 6 -5 5 -8 -2 -8 -7 0 -10 -7 -7 -15 4 -9 0 -15 -7 -15 -10 0
-10 -3 -3 -8 15 -9 14 -83 0 -75 -6 4 -5 -1 3 -10 11 -14 11 -20 0 -34 -10
-11 -10 -14 -1 -9 13 8 13 -19 -1 -40 -3 -6 -3 -14 1 -18 11 -12 11 -77 -1
-69 -6 4 -7 1 -1 -8 13 -21 13 -73 0 -81 -8 -6 -8 -8 1 -8 16 0 14 -72 -1 -82
-8 -5 -7 -8 2 -8 6 0 12 -8 12 -18 0 -10 -6 -24 -12 -31 -9 -10 -9 -12 -1 -7
6 3 14 2 18 -4 3 -5 0 -10 -7 -10 -8 0 -9 -3 -3 -8 12 -8 13 -32 2 -49 -5 -7
-5 -13 0 -13 4 0 9 -14 10 -30 2 -22 -1 -29 -10 -23 -9 5 -9 3 -1 -8 6 -8 11
-33 10 -57 -1 -23 2 -42 5 -42 3 0 5 -22 4 -49 -1 -28 2 -55 6 -62 4 -7 3 -21
-2 -31 -8 -14 -6 -18 8 -18 15 0 16 -2 3 -10 -8 -5 -11 -10 -6 -10 5 0 3 -7
-4 -15 -11 -13 -10 -14 5 -9 15 6 16 4 6 -14 -7 -12 -7 -22 -2 -22 5 0 8 -13
7 -30 -1 -16 3 -30 8 -30 6 0 4 -5 -4 -10 -12 -8 -12 -10 -1 -10 10 0 11 -3 2
-14 -9 -11 -9 -16 0 -22 8 -5 9 -3 4 6 -5 9 -4 11 3 6 9 -5 9 -13 1 -28 -8
-15 -8 -22 0 -28 7 -3 9 -14 5 -23 -4 -11 -1 -17 7 -17 11 0 11 -3 -1 -10 -10
-6 -11 -10 -2 -10 6 0 12 -5 12 -11 0 -6 -6 -7 -12 -2 -7 4 -5 -5 5 -20 11
-17 13 -27 6 -27 -8 0 -8 -4 -1 -13 6 -7 12 -36 14 -64 2 -28 6 -49 9 -47 4 2
9 -7 11 -21 3 -13 2 -23 -1 -20 -4 2 -7 -5 -7 -15 0 -10 4 -16 8 -14 4 3 9 2
9 -3 1 -4 3 -19 6 -33 2 -14 4 -35 5 -47 1 -12 6 -19 12 -16 5 4 7 0 3 -9 -3
-9 1 -27 8 -42 9 -16 10 -24 3 -20 -6 4 -4 -3 5 -17 19 -27 22 -43 6 -33 -6 3
-3 -5 6 -20 10 -15 15 -29 11 -33 -3 -4 1 -14 10 -24 8 -9 16 -33 17 -52 1
-19 5 -33 10 -30 4 2 7 -4 7 -14 0 -11 5 -24 11 -30 6 -6 12 -17 13 -24 9 -43
19 -69 28 -69 6 0 4 -8 -3 -17 -10 -11 -10 -14 -1 -9 7 4 12 1 12 -8 0 -9 3
-16 8 -16 4 0 8 -11 8 -25 1 -13 9 -32 18 -40 19 -20 21 -29 4 -19 -10 6 -10
5 -1 -8 7 -8 10 -18 6 -21 -3 -4 -1 -7 6 -7 8 0 11 -8 8 -19 -4 -15 -1 -18 12
-14 9 4 13 3 9 -2 -4 -4 -3 -14 3 -22 6 -7 8 -13 4 -13 -5 0 0 -10 11 -22 10
-12 13 -18 6 -14 -11 7 -12 4 -3 -13 7 -11 16 -21 22 -21 6 0 8 -4 5 -9 -3 -5
6 -25 19 -46 14 -20 21 -34 15 -30 -6 3 -7 0 -4 -9 3 -9 10 -16 15 -16 5 0 9
-7 9 -16 0 -9 5 -12 13 -8 7 5 6 0 -3 -11 -9 -11 -10 -16 -2 -11 7 4 12 1 12
-8 0 -9 4 -16 9 -16 5 0 14 -13 21 -30 7 -16 16 -30 21 -30 4 0 6 -9 4 -20 -2
-11 1 -19 6 -17 5 1 17 -11 27 -28 9 -16 20 -32 25 -33 4 -2 7 -10 7 -17 0 -8
8 -19 18 -24 9 -6 13 -11 8 -11 -5 0 1 -8 12 -19 12 -10 19 -21 15 -25 -3 -3
0 -6 7 -6 7 0 10 -3 7 -6 -4 -4 3 -15 14 -25 11 -9 21 -21 22 -26 1 -4 5 -7 9
-6 5 2 7 0 6 -5 -4 -12 28 -52 36 -45 4 4 4 0 0 -10 -3 -10 -1 -17 6 -17 6 0
9 -4 6 -9 -3 -5 3 -11 14 -14 11 -3 20 -11 20 -19 0 -10 -3 -9 -10 2 -5 8 -10
10 -10 5 0 -6 14 -21 30 -35 17 -14 30 -28 30 -31 0 -4 13 -21 30 -39 16 -18
30 -38 30 -46 0 -8 5 -14 11 -14 5 0 7 -4 4 -10 -3 -6 1 -7 9 -4 15 6 21 -6
17 -29 -1 -5 3 -6 9 -2 5 3 10 0 10 -8 0 -8 8 -21 18 -28 16 -13 16 -13 2 6
-14 18 -14 19 2 7 10 -8 20 -22 23 -33 4 -10 13 -19 21 -19 8 0 12 -5 9 -10
-3 -6 -2 -10 4 -10 5 0 13 -9 16 -20 3 -11 10 -20 15 -20 5 0 21 -11 36 -25
15 -14 24 -25 20 -25 -4 0 4 -11 16 -24 13 -13 26 -21 31 -19 4 2 7 -3 7 -12
0 -9 3 -14 8 -12 9 6 33 -19 25 -26 -3 -4 6 -9 21 -13 14 -3 26 -12 26 -20 0
-14 39 -40 54 -36 5 2 3 -5 -5 -14 -8 -10 -9 -15 -2 -11 14 9 45 -2 37 -14 -3
-5 0 -9 6 -9 6 0 8 -4 5 -10 -3 -6 1 -7 9 -4 11 4 16 0 16 -10 0 -9 7 -16 15
-16 8 0 15 -5 15 -11 0 -5 5 -7 10 -4 5 3 10 1 10 -5 0 -6 4 -8 10 -5 6 4 7
-1 3 -11 -5 -13 -3 -16 10 -11 13 5 17 1 18 -16 0 -12 3 -16 6 -9 3 9 14 3 35
-20 20 -23 27 -27 23 -13 -5 16 -4 16 7 -3 8 -12 17 -19 21 -15 4 4 10 -3 14
-15 3 -13 13 -22 25 -22 10 0 16 -4 13 -10 -3 -6 1 -7 9 -4 11 4 16 0 16 -11
0 -9 5 -13 10 -10 6 3 10 1 10 -6 0 -7 3 -9 6 -6 4 4 15 -3 25 -15 13 -14 19
-17 20 -7 0 8 4 4 9 -8 6 -15 15 -21 25 -17 9 4 15 3 14 -2 -4 -21 2 -28 11
-14 8 12 10 10 10 -9 0 -21 2 -22 17 -10 9 8 14 9 10 2 -4 -7 1 -14 13 -18 11
-3 20 -11 20 -16 0 -5 3 -8 8 -7 4 1 17 -3 28 -10 12 -6 25 -8 30 -4 5 4 2 -1
-5 -11 -12 -15 -12 -17 3 -11 20 8 48 -14 39 -30 -4 -6 1 -5 10 3 9 7 17 9 17
5 0 -5 18 -17 40 -27 23 -9 38 -22 35 -27 -4 -6 1 -7 11 -3 13 5 15 3 9 -8 -4
-8 -4 -11 0 -6 5 4 19 0 33 -9 13 -9 21 -11 18 -5 -4 7 -1 9 8 5 9 -3 12 -12
8 -22 -5 -15 -4 -15 11 -3 11 9 17 10 17 2 0 -6 7 -11 15 -11 8 0 15 -5 15
-11 0 -5 4 -8 9 -4 6 3 14 -3 20 -12 6 -11 11 -13 11 -5 0 7 5 10 10 7 6 -4 8
-10 5 -15 -3 -4 6 -7 20 -5 14 1 25 -2 25 -6 0 -5 7 -9 15 -9 8 0 15 -5 15
-11 0 -6 9 -9 20 -6 13 3 20 0 20 -9 0 -12 26 -19 53 -15 4 0 7 -3 7 -8 0 -5
7 -12 16 -15 10 -4 13 -2 9 7 -4 6 1 3 9 -7 9 -11 16 -16 16 -12 0 5 7 3 15
-4 8 -7 22 -10 30 -6 9 3 18 -1 21 -9 3 -7 12 -11 20 -8 8 3 14 0 14 -6 0 -6
11 -11 25 -11 14 0 25 -5 25 -11 0 -5 4 -8 9 -4 5 3 17 -2 25 -11 12 -11 16
-12 16 -2 0 10 3 9 10 -2 9 -13 10 -13 10 0 0 10 3 11 8 4 8 -12 46 -34 59
-34 4 0 1 5 -7 10 -8 5 -10 10 -4 10 6 0 17 -7 24 -15 7 -9 19 -14 27 -11 7 3
13 1 13 -5 0 -6 5 -7 10 -4 6 3 10 0 10 -7 0 -10 3 -9 10 2 8 13 10 12 15 -1
4 -11 14 -14 31 -11 18 3 24 0 24 -14 0 -16 2 -17 10 -4 7 10 13 11 18 5 4 -6
15 -11 25 -12 34 -1 38 -3 31 -15 -5 -7 -3 -8 7 -3 17 11 50 14 44 4 -3 -4 2
-9 10 -13 8 -3 15 0 15 7 0 8 2 9 8 1 4 -6 15 -10 25 -8 15 2 16 0 5 -13 -11
-14 -11 -15 8 -5 16 9 26 8 44 -5 13 -9 20 -11 16 -5 -4 7 -1 12 8 12 9 0 16
-4 16 -9 0 -5 16 -8 36 -7 19 2 41 -2 47 -8 7 -6 23 -12 37 -13 48 -3 90 -10
96 -16 4 -3 16 -2 27 4 15 9 18 8 12 -1 -6 -10 -1 -12 19 -8 14 3 29 2 32 -3
2 -4 11 -6 19 -2 9 3 15 -1 15 -8 0 -11 3 -11 10 1 9 13 10 13 10 0 0 -13 1
-13 10 0 5 8 10 10 10 4 0 -6 22 -12 51 -13 29 -1 57 -5 63 -8 17 -11 37 -12
30 -2 -3 5 -10 6 -16 3 -7 -4 -8 -2 -4 5 6 9 13 9 31 -3 17 -11 25 -12 34 -3
8 8 11 8 11 -2 0 -10 3 -11 14 -2 10 9 16 9 21 1 5 -8 11 -7 23 2 13 11 14 11
8 0 -6 -10 -3 -13 10 -11 11 2 24 0 31 -4 6 -4 14 -3 18 2 4 7 15 7 30 1 18
-7 25 -6 25 2 0 7 7 3 15 -8 12 -14 14 -15 9 -2 -4 13 -1 15 15 11 12 -3 21
-10 21 -15 0 -5 7 -2 16 6 12 12 20 13 35 6 10 -6 19 -8 19 -4 0 3 8 0 17 -7
9 -8 14 -9 10 -3 -5 8 4 12 28 12 24 0 33 -4 28 -12 -4 -7 -1 -6 9 2 8 7 24 9
33 5 11 -3 16 -2 13 3 -4 5 9 8 30 6 45 -4 105 -2 110 3 2 2 17 -1 33 -5 16
-5 27 -5 24 0 -3 4 2 11 11 14 8 3 12 2 9 -4 -9 -14 9 -12 23 2 9 9 12 9 12
-1 0 -8 6 -11 18 -6 32 13 82 14 75 2 -4 -8 -1 -7 9 0 8 7 26 13 39 13 13 0
32 0 42 0 39 1 57 5 57 13 0 5 6 4 14 -2 9 -8 16 -8 20 -2 7 10 16 12 84 13
23 1 42 4 42 8 0 11 30 7 30 -4 0 -6 5 -3 10 6 7 11 19 15 36 12 19 -3 24 -1
18 8 -6 10 -3 9 9 -1 9 -7 17 -9 17 -3 0 5 9 8 20 5 13 -3 20 0 20 8 0 11 2
11 10 -1 7 -12 10 -12 10 -1 0 7 6 11 15 7 8 -3 15 0 16 7 0 7 4 3 9 -8 6 -14
9 -15 9 -5 1 9 11 17 24 18 27 3 62 10 62 13 0 1 11 2 25 3 14 1 31 5 38 9 6
5 12 5 12 1 0 -3 8 0 17 7 14 12 16 12 8 0 -6 -11 -5 -12 6 -5 18 11 37 16 71
17 15 1 24 6 21 11 -4 5 1 7 10 3 10 -4 17 -2 17 4 0 7 9 9 21 6 13 -3 22 0
26 10 5 12 7 12 14 1 6 -9 9 -10 9 -1 0 7 7 10 17 6 10 -4 14 -2 10 4 -4 6 3
9 18 7 14 -1 25 3 25 9 0 5 3 7 6 4 4 -3 16 -2 27 4 15 9 18 8 11 -3 -6 -10
-4 -10 10 1 16 14 33 19 78 23 9 1 15 5 12 9 -5 9 24 16 57 15 19 -1 25 2 21
12 -4 11 0 13 16 8 14 -5 24 -1 31 11 8 14 11 15 11 3 0 -12 4 -10 15 4 11 14
15 16 15 5 0 -12 2 -12 10 1 5 8 10 11 10 5 0 -5 5 -4 12 3 7 7 20 12 30 12
10 0 18 5 18 11 0 5 5 7 10 4 6 -3 10 -2 10 4 0 6 6 8 14 5 8 -3 17 -1 21 5 9
15 28 14 20 -1 -4 -7 3 -2 15 12 12 14 19 19 15 13 -4 -9 -1 -11 9 -7 9 3 14
9 11 14 -2 4 7 6 20 4 14 -1 25 2 25 7 0 5 9 9 20 9 11 0 20 5 20 11 0 5 5 7
10 4 6 -3 10 -1 10 6 0 7 3 10 6 7 3 -4 17 0 31 7 15 8 30 12 35 9 4 -3 8 0 8
6 0 7 7 10 15 6 8 -3 14 0 12 6 -1 7 3 12 8 13 6 0 30 11 54 24 26 13 40 17
36 9 -3 -7 1 -4 10 7 9 11 18 19 20 18 14 -8 25 -1 19 10 -5 7 0 6 11 -3 11
-9 16 -10 11 -2 -4 7 -1 12 8 12 9 0 16 4 16 10 0 5 7 7 16 3 10 -4 17 1 21
16 3 11 9 18 14 15 5 -3 7 -11 3 -17 -3 -7 2 -3 10 7 9 11 16 16 16 12 0 -4 7
0 16 8 8 9 21 13 27 9 7 -4 8 0 3 12 -5 15 -4 16 8 6 12 -10 18 -9 32 8 10 11
21 18 26 15 4 -3 8 0 8 7 0 7 3 9 7 6 3 -4 12 1 20 11 8 9 12 11 8 5 -4 -9 -1
-11 9 -7 9 3 13 10 10 15 -5 8 18 14 39 10 5 -1 6 3 2 9 -3 5 1 10 9 10 9 0
16 5 16 11 0 6 6 9 13 6 6 -2 23 8 36 22 13 14 20 19 15 11 -7 -13 -5 -13 9
-2 9 8 21 11 26 7 6 -3 9 0 6 7 -5 13 51 45 68 40 5 -1 6 2 2 8 -3 5 1 10 10
10 10 0 13 5 9 12 -4 6 -3 8 4 4 6 -3 17 1 25 9 19 18 31 20 21 3 -4 -8 -3
-10 2 -5 5 5 9 14 9 20 1 7 6 11 13 10 7 -2 12 4 12 13 0 14 2 15 17 3 11 -10
14 -10 9 -2 -4 8 2 17 18 25 14 6 26 15 26 20 0 5 5 6 10 3 6 -3 10 -1 10 4 0
6 5 11 11 11 7 0 20 10 31 22 15 17 21 19 27 9 6 -10 10 -9 14 4 5 10 3 14 -5
9 -7 -4 -8 -3 -4 4 4 7 12 12 18 12 6 0 17 8 25 18 10 11 12 12 8 2 -4 -8 2
-5 13 8 11 12 25 22 31 22 7 0 14 7 17 15 4 8 10 12 15 9 5 -3 9 3 9 13 0 15
2 16 10 3 8 -13 10 -12 10 3 0 16 12 22 35 17 5 -1 7 1 3 5 -8 8 44 55 62 55
6 0 9 4 6 8 -3 5 6 15 19 22 13 7 22 17 19 22 -3 4 4 8 16 8 12 0 19 4 16 9
-3 5 1 12 10 15 8 3 12 11 8 17 -4 8 -3 9 5 5 11 -7 46 20 46 35 0 4 3 11 8
15 4 4 7 2 7 -5 0 -7 5 -9 10 -6 6 4 8 9 6 13 -2 4 3 16 11 27 16 20 16 20 9
0 -6 -20 -6 -20 9 -1 8 11 15 24 15 29 0 4 5 5 10 2 10 -6 14 8 10 34 -1 12 1
12 12 3 15 -12 38 1 38 22 0 5 -7 1 -16 -10 -15 -18 -15 -18 -5 3 8 15 18 21
33 18 16 -4 19 -2 10 7 -7 7 -12 17 -12 23 0 5 4 4 9 -3 6 -11 13 -8 28 12 11
14 24 22 29 18 5 -4 2 1 -5 10 -11 15 -10 17 9 13 18 -3 20 -2 10 10 -8 10 -8
15 1 21 8 4 9 3 5 -4 -4 -7 -2 -12 3 -12 10 0 15 14 12 32 0 4 5 5 13 2 8 -3
17 0 22 7 4 8 3 10 -4 5 -7 -4 -12 -2 -12 3 0 6 8 11 19 11 27 0 44 23 28 40
-10 10 -9 11 2 5 9 -5 20 0 33 16 11 13 16 18 12 10 -5 -9 -3 -12 5 -7 6 4 9
12 6 17 -4 5 1 16 9 25 9 9 14 20 11 25 -4 5 -1 9 4 9 6 0 11 -6 12 -12 0 -7
4 -3 10 10 5 14 13 20 20 16 8 -4 9 -3 5 4 -4 7 10 28 31 49 21 20 31 33 23
29 -9 -4 -8 -2 2 7 10 8 14 18 10 23 -4 4 0 3 8 -3 13 -10 18 -8 28 7 10 17 9
18 -6 13 -13 -4 -13 -3 3 10 11 8 24 13 29 10 5 -4 6 -1 2 6 -5 8 0 14 14 18
12 3 17 9 12 12 -6 4 -4 14 5 26 13 17 15 17 9 2 -3 -11 -2 -16 4 -12 6 3 10
11 10 16 0 6 7 17 16 26 8 9 13 22 9 31 -5 13 -3 13 12 1 15 -12 16 -12 9 6
-4 11 -4 16 0 12 11 -11 34 13 34 35 0 18 2 19 17 7 14 -12 16 -12 8 0 -5 9
-2 19 10 28 11 7 15 13 10 13 -4 0 2 9 14 19 14 12 20 25 15 32 -4 8 -3 9 5 5
6 -4 14 0 18 11 3 10 13 22 20 26 7 5 11 12 8 18 -4 5 -1 9 5 9 6 0 8 4 5 10
-4 6 1 7 11 3 11 -4 15 -2 12 8 -2 7 5 22 17 34 12 11 20 26 17 34 -3 8 0 11
6 7 7 -4 14 3 18 18 3 14 11 24 18 23 6 -1 10 6 8 15 -2 10 2 18 9 18 6 0 9 7
6 14 -4 11 -1 13 10 9 13 -5 15 -2 11 15 -4 14 -2 19 8 15 9 -3 12 2 9 16 -2
12 0 19 6 16 5 -4 12 1 15 9 3 9 11 13 18 9 6 -3 6 0 -2 8 -10 11 -7 18 15 37
16 13 22 21 16 17 -9 -4 -11 -1 -7 9 3 9 10 13 15 10 5 -3 9 4 9 15 0 12 5 21
10 21 6 0 10 9 10 21 0 14 5 19 14 16 10 -4 13 -1 9 9 -3 7 0 14 7 14 6 0 9 4
5 9 -3 5 2 16 11 25 8 9 12 21 8 28 -5 8 -2 9 10 5 9 -4 14 -3 11 2 -7 13 16
62 26 55 5 -3 6 3 2 12 -4 11 -3 15 5 10 7 -4 10 1 7 14 -2 11 0 18 6 15 8 -6
13 8 10 28 0 4 4 7 10 7 5 0 8 4 4 9 -3 6 1 13 9 18 8 4 15 10 16 13 6 32 14
49 20 45 5 -3 6 4 3 15 -3 12 1 22 10 26 9 3 14 11 11 18 -3 7 2 19 10 26 9 7
13 16 10 21 -3 5 0 9 6 9 6 0 8 5 4 12 -5 8 -2 9 11 4 15 -5 16 -4 5 9 -10 12
-9 16 5 21 13 5 14 9 3 15 -11 7 -11 9 1 9 8 0 11 6 7 16 -3 9 -2 12 4 9 6 -4
13 7 16 24 4 17 10 28 14 26 5 -3 7 3 6 12 -2 10 1 21 6 24 5 3 10 12 11 20 2
8 6 20 10 27 5 6 5 17 1 24 -5 8 -2 9 10 5 10 -4 15 -3 11 3 -4 6 3 27 14 46
12 19 16 32 10 29 -7 -5 -7 -2 0 11 6 11 15 32 21 47 7 19 14 26 22 21 9 -5 9
-2 -1 9 -9 12 -10 17 -2 17 7 0 10 4 6 9 -3 5 2 17 11 25 11 12 12 16 2 16 -9
1 -7 5 5 14 17 13 25 32 8 22 -5 -3 0 11 10 31 10 20 16 40 13 44 -3 5 0 9 6
9 6 0 8 4 5 10 -3 5 -2 10 4 10 5 0 8 12 6 26 -1 14 3 28 10 30 11 5 13 11 17
54 2 13 7 18 16 15 8 -3 10 0 5 8 -12 19 -12 38 0 30 7 -4 8 0 4 11 -6 14 -3
17 9 12 14 -5 15 -4 4 9 -10 12 -10 15 1 15 11 0 11 2 -1 10 -12 8 -12 10 3
16 9 3 14 10 11 15 -3 6 -1 15 4 22 5 7 10 20 11 30 0 9 2 25 2 35 1 9 6 22
11 29 5 7 7 17 3 23 -3 5 -1 10 6 10 7 0 9 3 6 7 -4 3 -1 13 6 21 9 13 9 14 0
8 -9 -5 -11 -2 -7 8 3 9 10 14 14 11 5 -3 7 6 4 21 -3 17 -1 23 7 19 8 -5 7
-1 -1 15 -10 18 -9 21 1 15 9 -6 11 -2 7 13 -5 16 -1 22 10 23 11 0 12 2 5 6
-9 3 -10 10 -3 23 7 13 6 20 -3 23 -9 4 -9 6 1 6 6 1 12 8 12 17 0 9 5 12 13
8 9 -5 9 -4 0 6 -9 9 -9 18 -1 33 7 15 7 22 -3 28 -11 7 -10 9 4 9 10 0 15 5
12 10 -4 6 -1 18 7 27 11 14 11 16 -2 8 -12 -7 -13 -6 -5 6 6 8 12 28 14 44 2
17 6 35 10 40 4 6 6 22 5 37 -2 17 2 28 9 28 7 0 6 4 -3 10 -8 5 -10 10 -3 10
6 0 10 8 8 18 -1 9 3 23 9 31 8 11 8 13 -1 7 -9 -5 -11 -2 -7 8 3 9 9 14 13
12 3 -2 5 13 5 35 -1 21 1 41 5 43 3 2 6 27 6 55 0 28 3 51 8 51 5 0 5 10 2
21 -5 14 -3 19 3 15 11 -7 9 25 -3 43 -3 5 0 13 6 16 5 4 8 13 5 21 -3 8 -1
14 5 14 6 0 6 7 -1 20 -7 14 -7 20 0 20 5 0 10 5 10 11 0 5 -5 7 -10 4 -15 -9
-12 2 6 19 8 9 10 16 4 16 -7 0 -8 6 0 19 7 14 6 21 -3 24 -8 4 -8 8 -2 14 6
4 11 28 11 53 1 25 4 62 7 83 2 21 0 40 -4 43 -5 3 -5 13 1 23 5 10 6 21 3 25
-3 3 0 6 8 6 12 0 11 2 -1 10 -12 8 -13 11 -1 19 9 6 10 10 2 16 -9 5 -9 10 0
21 9 11 9 14 -1 14 -10 0 -10 3 0 15 10 12 10 15 -1 15 -12 0 -12 2 0 9 9 6
10 10 2 16 -9 5 -9 10 -1 20 8 10 7 14 -2 18 -7 3 -4 6 7 6 16 1 17 3 5 11
-16 10 -20 38 -7 57 4 6 3 14 -3 18 -6 3 -7 12 -3 18 13 20 12 41 0 49 -9 6
-8 8 2 8 11 0 11 3 1 15 -9 11 -9 15 -1 15 8 0 9 5 2 18 -7 13 -6 23 1 30 9 9
8 12 -2 12 -13 0 -13 2 0 10 10 6 11 10 3 10 -7 0 -13 5 -13 11 0 5 4 8 8 5
10 -6 9 25 -2 42 -4 7 -2 12 6 12 10 0 10 2 0 9 -8 4 -14 12 -14 16 0 4 6 12
14 16 11 7 11 9 -1 9 -8 0 -11 7 -8 20 3 10 0 21 -7 24 -8 3 -8 5 1 5 8 1 9
10 4 29 -4 15 -7 44 -6 65 1 20 -1 37 -5 37 -9 0 -8 20 3 36 4 7 0 17 -9 24
-12 11 -12 15 -2 22 10 6 10 10 -2 18 -12 8 -12 10 -1 10 10 0 11 3 2 13 -8
10 -7 17 1 25 9 9 8 12 -5 12 -13 0 -15 5 -7 24 6 17 5 26 -3 29 -9 3 -8 9 3
22 8 10 10 16 4 12 -7 -4 -11 8 -12 34 -1 22 -7 49 -12 60 -8 14 -7 19 1 19 8
0 8 4 1 13 -6 7 -13 35 -15 63 -3 27 -7 56 -10 64 -7 18 -15 65 -16 98 -1 16
-5 21 -13 16 -10 -6 -10 -4 0 8 9 12 10 18 2 23 -6 4 -9 13 -6 21 3 8 0 14 -7
14 -8 0 -8 3 2 9 8 5 9 10 3 12 -6 2 -13 18 -16 34 -2 17 -5 30 -6 30 -1 0 -4
11 -6 25 -7 41 -10 54 -18 72 -5 10 -5 25 -2 34 4 10 2 13 -6 8 -7 -5 -9 1 -6
19 3 15 1 24 -3 21 -5 -3 -9 4 -9 16 0 14 -4 19 -12 14 -9 -5 -9 -2 1 9 9 11
10 17 2 17 -6 0 -11 5 -11 11 0 5 6 7 13 3 6 -4 4 2 -6 13 -9 11 -14 23 -10
26 3 4 0 7 -8 7 -11 0 -11 2 1 10 8 5 10 10 4 10 -10 0 -25 28 -28 55 -1 6 -5
16 -9 23 -5 6 -6 16 -3 21 4 5 2 11 -3 13 -5 1 -11 12 -13 23 -1 11 -7 23 -12
26 -5 4 -8 18 -8 33 0 14 -4 23 -8 21 -4 -3 -11 2 -14 11 -3 8 -2 12 4 9 6 -3
7 1 4 9 -3 9 -10 16 -16 16 -5 0 -6 5 -3 10 3 6 1 10 -5 10 -7 0 -9 7 -6 15 3
9 -1 18 -10 22 -13 5 -13 7 -2 14 10 6 8 9 -7 9 -17 0 -17 2 -5 10 12 8 12 10
1 10 -8 0 -11 3 -8 7 4 3 -1 12 -11 19 -13 10 -14 13 -3 14 11 0 10 4 -5 16
-10 8 -12 13 -4 9 8 -4 4 3 -10 15 -14 12 -18 18 -10 14 13 -7 13 -5 1 9 -7 9
-10 17 -6 17 5 0 -2 9 -14 19 -16 14 -18 21 -9 24 10 4 10 6 1 6 -7 1 -13 8
-13 16 0 8 -5 15 -11 15 -5 0 -8 4 -5 9 3 5 -4 20 -15 35 -11 14 -17 26 -13
26 4 0 -1 7 -12 16 -10 8 -12 13 -4 9 12 -5 12 -4 -1 7 -8 7 -22 28 -30 46 -7
17 -17 32 -21 32 -5 0 -8 9 -8 19 0 10 -7 22 -16 25 -8 3 -12 10 -9 16 3 5 1
10 -4 10 -6 0 -11 9 -11 21 0 11 -4 18 -9 15 -5 -3 -17 11 -26 32 -10 20 -24
41 -31 45 -8 4 -14 17 -14 28 0 11 -4 17 -10 14 -5 -3 -10 0 -10 8 0 7 -9 23
-20 35 -12 12 -18 22 -15 22 3 0 -6 11 -20 24 -15 14 -26 28 -25 31 1 4 -7 18
-19 31 -11 13 -18 24 -15 24 3 0 -6 11 -20 24 -15 13 -26 28 -26 35 0 6 -4 11
-10 11 -5 0 -10 7 -10 16 0 8 -4 12 -10 9 -5 -3 -10 1 -10 10 0 10 -5 13 -12
9 -7 -4 -8 -3 -4 4 4 7 -9 27 -29 47 -21 20 -33 39 -29 46 4 7 3 9 -3 6 -12
-8 -46 27 -36 36 3 4 -1 7 -10 7 -8 0 -18 9 -22 19 -3 11 -12 22 -20 25 -8 3
-15 13 -15 23 0 15 -2 16 -10 3 -8 -13 -10 -12 -10 3 0 9 -4 17 -10 17 -5 0
-10 7 -10 16 0 8 -4 12 -10 9 -5 -3 -10 1 -10 10 0 9 -5 13 -10 10 -5 -3 -10
-1 -10 5 0 6 -18 29 -40 50 -22 21 -40 43 -40 49 0 6 -3 10 -7 10 -17 -3 -33
1 -32 9 3 20 -2 32 -13 30 -7 -2 -12 3 -10 10 1 8 -2 11 -7 8 -5 -4 -17 4 -25
16 -9 12 -16 20 -16 16 0 -3 -17 10 -39 30 -21 21 -36 41 -33 46 3 5 0 6 -6 2
-6 -3 -22 5 -36 19 -14 14 -28 25 -31 25 -13 0 -34 28 -27 35 4 5 2 5 -4 2
-15 -8 -56 22 -48 35 4 6 2 8 -4 4 -6 -3 -17 1 -25 9 -9 8 -18 15 -22 15 -4 0
-13 6 -20 13 -31 27 -44 37 -51 37 -14 0 -53 38 -46 45 4 5 -1 5 -11 2 -11 -4
-20 -1 -23 8 -4 8 -11 15 -17 15 -6 0 -22 10 -35 23 -14 12 -22 16 -17 8 5 -9
4 -12 -3 -7 -7 4 -12 14 -12 23 0 13 -3 13 -15 3 -12 -10 -15 -10 -15 1 0 8
-23 25 -50 38 -28 12 -47 27 -44 32 3 5 -2 6 -10 3 -9 -3 -16 -1 -16 5 0 6 -7
11 -15 11 -8 0 -15 5 -15 11 0 5 -4 7 -10 4 -5 -3 -10 -1 -10 4 0 6 -3 11 -7
10 -16 -2 -53 14 -53 22 0 5 -9 9 -20 9 -11 0 -20 4 -20 9 0 8 -37 24 -52 22
-5 -1 -8 4 -8 10 0 5 -5 7 -10 4 -5 -3 -10 -1 -10 5 0 6 -4 8 -10 5 -5 -3 -10
2 -10 12 0 15 -2 16 -10 3 -7 -11 -10 -11 -10 -2 0 7 -5 10 -10 7 -6 -3 -13 1
-16 9 -3 9 -10 13 -16 10 -5 -3 -19 2 -30 13 -15 12 -19 13 -14 3 6 -13 5 -13
-6 0 -7 9 -21 14 -30 12 -11 -2 -18 3 -18 12 0 10 -6 13 -15 10 -8 -4 -15 -2
-15 3 0 4 -9 14 -21 21 -12 8 -18 9 -14 3 3 -6 1 -11 -4 -11 -6 0 -11 5 -11
11 0 5 -4 8 -9 4 -6 -3 -14 3 -20 12 -5 10 -12 17 -15 16 -17 -8 -36 -2 -30
10 5 9 4 9 -6 0 -11 -10 -16 -9 -25 4 -7 9 -25 17 -41 19 -16 2 -30 8 -32 14
-2 5 -8 8 -13 4 -5 -3 -9 0 -9 5 0 6 -5 11 -11 11 -5 0 -7 -6 -3 -12 4 -7 -2
-5 -13 5 -11 9 -23 14 -26 10 -4 -3 -7 1 -7 10 0 9 -5 17 -11 17 -5 0 -7 -6
-3 -12 6 -10 4 -10 -7 0 -7 6 -21 12 -31 12 -10 0 -18 5 -18 11 0 5 -4 8 -8 5
-5 -3 -22 2 -38 10 -16 9 -30 15 -31 15 -15 -4 -23 1 -17 12 5 9 4 9 -6 0 -11
-10 -16 -9 -27 5 -9 10 -12 11 -7 2 7 -12 5 -13 -8 -3 -8 7 -18 10 -21 6 -4
-3 -7 -1 -7 5 0 7 -13 12 -29 12 -16 0 -31 6 -35 15 -3 8 -12 12 -21 9 -8 -4
-15 -1 -15 6 0 10 -3 10 -15 0 -8 -7 -15 -9 -15 -4 0 5 -11 14 -25 21 -14 6
-23 7 -20 3 3 -5 -12 0 -32 10 -28 13 -40 15 -45 7 -6 -9 -8 -9 -8 1 0 6 -7
12 -16 12 -8 0 -13 4 -10 8 3 4 -8 7 -25 6 -16 -1 -29 2 -29 7 0 5 -5 9 -11 9
-5 0 -7 -6 -3 -12 5 -8 1 -7 -10 2 -10 8 -27 15 -39 17 -11 2 -40 10 -65 18
-24 9 -48 13 -53 10 -5 -4 -9 -1 -9 5 0 6 -11 8 -26 6 -16 -3 -27 0 -31 10 -5
13 -7 13 -14 2 -7 -10 -9 -10 -9 0 0 8 -9 11 -24 8 -19 -3 -23 -1 -19 11 5 12
3 14 -8 7 -18 -11 -32 -12 -40 -2 -3 4 -17 9 -32 10 -15 1 -27 5 -27 9 0 3 -7
6 -15 6 -8 0 -15 -5 -15 -11 0 -7 -3 -6 -8 1 -5 7 -20 14 -35 15 -15 1 -27 5
-27 9 0 4 -10 5 -22 1 -12 -3 -19 -1 -15 5 3 5 -8 8 -29 7 -19 -2 -34 1 -34 5
0 5 -10 9 -22 10 -56 2 -78 6 -78 13 0 5 -6 8 -12 7 -30 -4 -69 2 -64 9 3 4
-5 8 -17 9 -60 1 -68 3 -61 16 5 8 2 8 -9 -2 -10 -7 -17 -9 -17 -3 0 6 -8 9
-17 7 -10 -1 -24 3 -32 9 -11 8 -13 8 -7 -1 7 -12 -13 -9 -39 6 -12 7 -18 8
-51 10 -15 1 -23 5 -18 12 4 8 0 8 -15 0 -16 -9 -21 -9 -21 0 0 6 -9 9 -20 6
-11 -3 -20 -1 -20 3 0 5 -9 7 -20 5 -11 -2 -20 2 -20 8 0 7 -4 6 -10 -3 -5 -8
-10 -10 -10 -4 0 7 -7 15 -16 18 -8 3 -12 2 -9 -4 3 -6 1 -10 -4 -10 -6 0 -11
4 -11 10 0 5 -7 6 -17 3 -10 -4 -14 -2 -10 4 5 7 0 9 -13 6 -11 -3 -28 1 -37
8 -12 10 -14 10 -9 2 4 -7 3 -13 -3 -13 -5 0 -13 5 -16 10 -4 6 -14 10 -23 9
-10 -1 -28 3 -42 8 -16 7 -27 7 -31 1 -4 -6 -9 -6 -13 1 -4 6 -12 9 -17 6 -5
-4 -9 -1 -9 5 0 8 -6 7 -21 -1 -17 -9 -20 -8 -14 2 6 9 3 11 -8 6 -10 -3 -17
-2 -17 3 0 6 -5 10 -11 10 -6 0 -7 -6 -2 -12 4 -8 -4 -6 -18 3 -18 12 -30 14
-42 7 -9 -5 -17 -5 -17 0 0 9 -7 11 -57 15 -18 1 -33 6 -33 12 0 5 -5 3 -10
-5 -7 -11 -10 -11 -10 -2 0 7 -8 12 -17 11 -34 -3 -44 1 -37 14 5 7 0 6 -11
-3 -13 -10 -19 -11 -22 -4 -2 7 -12 10 -22 7 -10 -3 -22 0 -25 6 -4 5 -14 7
-22 4 -9 -3 -20 0 -25 8 -7 11 -9 11 -9 1 0 -8 -5 -10 -12 -6 -7 5 -31 10 -53
12 -22 2 -45 8 -52 14 -9 7 -13 7 -13 -2 0 -9 -4 -9 -12 -3 -7 6 -21 9 -30 8
-10 -2 -18 1 -18 6 0 4 -6 6 -14 3 -8 -3 -24 0 -36 6 -18 10 -21 9 -15 -1 5
-8 4 -10 -4 -5 -12 8 -36 13 -87 20 -16 2 -37 7 -46 11 -9 4 -22 4 -28 0 -5
-3 -10 -2 -10 4 0 5 -13 7 -30 5 -20 -4 -30 -1 -30 8 0 9 -3 9 -10 -2 -5 -8
-10 -10 -10 -4 0 6 -12 11 -27 10 -16 -1 -34 6 -41 14 -8 8 -11 10 -8 3 4 -7
-1 -11 -14 -10 -11 1 -20 6 -20 12 0 5 -5 3 -10 -5 -5 -8 -10 -10 -10 -4 0 6
-10 10 -22 10 -13 -1 -31 5 -41 13 -16 14 -17 13 -11 -5 7 -17 6 -17 -9 -5
-10 8 -20 11 -24 8 -3 -3 -20 0 -38 7 -24 10 -36 11 -44 3 -7 -7 -11 -7 -11
-1 0 5 -12 9 -27 9 -16 -1 -33 3 -40 7 -6 5 -14 5 -18 -2 -3 -6 -11 -8 -16 -4
-5 3 -6 11 -2 17 4 7 0 6 -10 -2 -14 -11 -20 -11 -32 -1 -12 10 -15 10 -15 0
0 -9 -6 -8 -19 4 -10 10 -21 13 -24 9 -7 -10 -48 -10 -65 1 -7 4 -12 2 -12 -4
0 -6 -5 -8 -10 -5 -6 4 -7 11 -4 17 4 6 -1 6 -14 -1 -17 -9 -20 -8 -17 7 2 9
4 17 5 17 1 0 4 9 6 20 8 34 12 50 14 50 1 0 4 13 6 29 3 16 10 38 15 48 5 10
7 22 5 27 -3 5 0 11 8 14 9 4 12 15 8 33 -3 17 -1 25 5 21 6 -4 8 3 5 18 -2
14 0 25 6 25 6 0 9 11 7 25 -1 14 1 25 5 25 4 0 11 25 15 55 3 30 10 55 14 55
4 0 7 8 8 18 1 9 5 31 8 47 4 17 9 41 10 55 2 14 4 25 5 25 2 0 11 37 12 53 1
6 5 12 9 12 4 0 7 10 7 23 0 28 5 48 17 67 5 8 8 26 6 39 -2 14 1 21 8 17 7
-5 8 -1 4 9 -3 10 0 21 8 26 11 6 11 9 1 9 -9 0 -10 5 -3 19 6 10 7 21 4 25
-3 3 -1 6 6 6 7 0 10 4 7 9 -4 5 0 12 6 14 10 4 10 6 0 6 -9 1 -10 6 -3 20 6
10 7 21 4 25 -3 3 -1 6 5 6 6 0 9 9 7 20 -2 11 0 20 5 20 5 0 7 9 5 19 -2 11
2 22 9 24 7 3 12 16 11 29 -1 12 3 26 9 30 7 5 7 8 -2 8 -10 0 -10 3 1 15 9 8
14 26 13 40 -2 14 3 30 10 36 8 6 14 22 14 34 0 13 6 26 13 28 9 4 8 8 -3 16
-11 8 -12 11 -2 11 7 0 10 5 7 10 -3 6 -2 10 4 10 6 0 8 7 5 15 -4 8 -1 15 5
15 6 0 10 3 10 8 -5 29 3 73 16 85 11 12 12 17 2 20 -6 3 -4 6 7 6 15 1 16 4
6 16 -11 14 -7 19 13 16 4 -1 3 8 -3 19 -9 18 -7 23 10 22 3 0 5 15 6 35 0 19
6 38 13 43 11 6 11 9 0 13 -11 4 -11 6 -1 6 7 1 10 6 7 11 -3 6 -2 10 4 10 6
0 8 7 5 15 -4 8 0 23 7 32 12 14 12 16 -1 8 -11 -6 -10 -3 3 12 9 11 14 23 10
27 -4 4 -1 11 7 16 10 7 11 10 2 10 -8 0 -9 5 -3 18 16 29 24 56 22 71 -1 7 2
10 7 7 5 -3 8 8 7 24 -1 17 2 30 7 30 4 0 7 3 7 8 -4 25 2 42 14 36 8 -5 8 -2
-2 9 -13 16 -8 22 13 18 5 -1 4 5 -4 13 -10 14 -10 16 6 16 15 0 16 2 5 9 -10
6 -11 13 -2 29 6 11 11 32 11 47 0 14 4 24 9 21 11 -7 9 13 -3 33 -6 9 -5 12
0 8 6 -3 16 -2 24 4 8 5 10 9 4 9 -6 0 -11 7 -11 15 0 8 4 15 9 15 5 0 7 4 4
8 -2 4 -1 14 4 22 5 9 4 20 -3 29 -9 12 -9 13 1 7 11 -6 17 5 13 27 0 4 3 7 8
7 5 0 7 10 3 22 -3 13 -1 19 5 15 6 -4 9 4 7 18 -1 14 2 25 7 25 4 0 6 6 3 14
-3 8 0 17 6 21 8 5 7 11 -2 23 -10 12 -10 14 0 8 11 -6 17 11 13 37 0 4 3 7 7
7 8 0 10 11 14 69 1 17 5 28 10 25 8 -5 12 26 9 55 -2 7 2 10 7 7 6 -4 8 3 4
16 -3 14 -1 19 6 14 6 -3 14 -1 18 5 5 8 3 9 -6 4 -10 -6 -11 -1 -6 21 3 16 9
43 12 59 3 17 11 33 17 37 8 5 7 8 -3 8 -12 0 -13 2 -1 9 7 5 10 14 7 20 -4 6
-3 11 3 11 5 0 8 9 6 20 -2 11 0 20 5 20 4 0 7 11 5 25 -1 14 2 28 7 31 5 3 7
13 4 21 -4 8 -2 11 5 7 8 -4 9 1 4 15 -4 13 -2 21 6 21 8 0 8 5 -2 17 -10 11
-10 14 -1 9 12 -7 16 3 12 38 -1 11 3 15 9 12 7 -5 8 -1 4 9 -3 10 0 21 8 26
11 7 11 9 1 9 -8 0 -10 5 -5 13 4 6 9 19 10 27 5 20 11 63 12 73 1 5 7 5 14 1
8 -5 8 -2 -2 9 -11 13 -11 17 -1 17 8 0 10 3 7 7 -4 3 -1 13 6 21 10 13 9 14
-3 7 -9 -5 -7 1 5 15 11 13 14 20 8 16 -7 -4 -13 -2 -13 3 0 6 5 11 11 11 6 0
9 7 5 15 -3 8 0 15 7 15 8 0 8 3 -2 9 -10 6 -10 10 -1 16 6 4 9 13 6 21 -3 8
-1 14 4 14 5 0 6 7 3 17 -4 10 -2 14 4 10 7 -4 10 0 8 10 -1 10 3 24 9 32 8
11 8 13 -1 7 -7 -4 -13 -2 -13 3 0 6 4 11 9 11 5 0 12 7 15 16 4 9 2 13 -5 8
-7 -4 -6 3 2 17 7 13 13 40 14 59 2 34 7 50 26 98 7 18 6 21 -3 16 -10 -6 -10
-5 -1 7 6 8 13 25 15 39 1 14 8 28 13 32 6 5 5 8 -3 8 -10 0 -10 5 -2 21 7 11
9 27 6 34 -3 10 0 12 11 8 13 -5 13 -3 5 14 -8 14 -8 23 0 31 7 7 8 12 3 12
-6 0 -3 5 5 10 10 6 11 10 3 10 -7 0 -13 5 -13 11 0 5 5 7 12 3 8 -5 9 -2 5 9
-4 10 -2 17 5 17 6 0 5 6 -3 17 -8 9 -9 14 -3 10 16 -10 25 18 11 33 -9 10 -9
11 1 6 7 -4 12 -2 13 6 2 40 12 74 22 80 9 5 8 8 -3 8 -9 0 -11 3 -5 8 6 4 12
18 13 32 2 14 9 31 15 39 9 11 9 15 -1 19 -10 3 -10 7 -1 18 7 8 9 17 6 21 -4
3 -2 12 4 20 9 10 8 13 0 13 -8 0 -6 6 4 16 13 14 14 19 3 25 -10 7 -10 9 0 9
8 0 11 9 8 25 -3 14 0 25 5 25 6 0 5 9 -2 21 -6 12 -7 19 -1 15 5 -3 12 3 15
14 3 12 1 18 -5 14 -7 -4 -7 0 -1 12 6 11 11 41 12 69 1 27 4 51 6 54 3 2 0
10 -6 18 -6 7 -8 13 -3 13 5 0 9 15 8 32 -1 18 4 36 10 40 8 5 7 8 -2 8 -9 0
-10 5 -3 18 7 13 6 23 -1 30 -9 9 -9 12 1 12 11 0 11 3 1 15 -10 12 -10 15 0
15 10 0 10 3 1 14 -8 10 -9 16 -1 21 6 3 7 12 3 18 -12 19 -12 36 -2 43 6 4 6
11 -1 19 -8 9 -8 15 0 20 6 3 8 11 5 16 -4 5 -1 9 6 9 7 0 4 7 -7 15 -10 8
-14 15 -7 15 12 0 12 17 0 37 -4 6 -2 15 4 19 8 4 7 9 -2 15 -11 7 -11 9 -1 9
8 0 10 5 5 13 -13 20 -13 41 0 49 9 6 9 8 0 8 -14 0 -13 40 2 41 5 0 1 4 -10
9 -11 5 -14 9 -7 9 8 1 10 7 5 19 -5 9 -8 29 -7 45 0 15 -3 27 -9 27 -5 0 -5
6 2 13 8 10 7 17 -1 25 -7 7 -8 12 -4 12 5 0 2 8 -5 17 -12 15 -12 16 5 9 19
-6 19 -6 3 12 -13 14 -14 21 -4 31 9 10 9 11 -4 6 -12 -4 -15 0 -15 17 1 13 6
26 11 30 6 4 1 8 -10 8 -17 0 -17 2 -5 10 8 5 10 10 3 10 -6 0 -9 9 -6 20 3
12 0 20 -8 20 -7 0 -9 3 -6 6 3 4 1 16 -5 28 -11 20 -10 20 8 6 18 -14 18 -14
1 6 -9 11 -14 24 -10 27 3 4 0 7 -8 7 -11 0 -11 2 1 10 10 6 11 10 3 10 -7 0
-13 9 -13 20 0 11 -5 20 -11 20 -8 0 -7 6 2 17 8 9 9 14 4 11 -6 -4 -15 5 -22
18 -8 18 -8 22 0 18 8 -5 7 -2 0 7 -7 7 -13 21 -13 31 0 10 -5 18 -11 18 -6 0
-9 6 -6 14 3 8 -1 17 -9 20 -8 3 -14 11 -14 18 0 9 3 8 10 -2 5 -8 10 -10 10
-4 0 14 -25 36 -32 29 -3 -3 -4 6 -3 20 2 17 -2 25 -11 25 -9 0 -12 5 -9 10 3
6 2 10 -4 10 -5 0 -8 9 -6 20 2 11 -1 23 -7 26 -7 5 -8 2 -4 -7 4 -8 1 -5 -8
6 -8 11 -20 25 -25 31 -6 8 -5 16 2 23 9 10 9 12 -3 9 -8 -2 -14 3 -12 10 1 8
-1 11 -5 9 -10 -6 -34 19 -26 27 3 3 -2 8 -11 12 -9 3 -16 12 -16 19 0 7 -14
22 -31 33 -17 10 -30 22 -30 26 3 18 0 29 -5 23 -4 -3 -19 7 -34 23 -15 16
-30 26 -34 23 -3 -3 -6 1 -6 11 0 9 -4 14 -10 11 -5 -3 -10 -1 -10 5 0 6 -4 8
-10 5 -5 -3 -10 1 -10 10 0 9 -4 14 -9 10 -5 -3 -17 3 -27 12 -10 10 -22 18
-28 18 -6 1 -10 7 -8 14 1 7 -2 9 -8 6 -6 -4 -19 0 -29 9 -10 9 -28 18 -39 21
-11 2 -30 9 -41 15 -12 6 -21 7 -21 3 0 -4 -5 0 -11 9 -5 10 -16 15 -24 12 -9
-4 -15 0 -15 7 0 10 -3 10 -12 1 -15 -15 -32 -16 -23 -2 5 9 -18 15 -28 8 -2
-2 -12 4 -22 12 -15 12 -17 12 -10 1 6 -11 5 -12 -6 -5 -23 14 -51 15 -44 2 4
-7 0 -5 -8 5 -16 20 -32 23 -20 5 4 -7 -6 -5 -21 6 -16 10 -26 14 -22 8 3 -6
-10 -9 -33 -9 -22 1 -38 4 -36 7 2 4 -2 7 -10 7 -8 0 -12 -4 -9 -9 3 -4 0 -8
-5 -8 -6 0 -11 6 -11 13 0 8 -4 7 -10 -3 -9 -13 -11 -13 -20 0 -6 10 -10 11
-10 3z m-2530 -1746 c0 -2 -10 -12 -22 -23 l-23 -19 19 23 c18 21 26 27 26 19z
m1638 -985 c-10 -12 -10 -14 0 -8 14 8 15 5 6 -18 -3 -9 -11 -13 -16 -10 -6 4
-5 -3 1 -15 10 -18 9 -20 -6 -14 -16 6 -16 5 -4 -10 7 -9 9 -17 4 -17 -5 0
-10 -6 -11 -12 -3 -42 -7 -58 -14 -58 -4 0 -5 -9 -3 -20 2 -11 -1 -20 -7 -20
-6 0 -8 -3 -5 -7 4 -3 1 -13 -6 -21 -10 -13 -9 -15 3 -8 8 4 6 0 -4 -8 -15
-12 -16 -16 -5 -16 8 0 10 -3 4 -8 -6 -4 -11 -16 -11 -27 0 -12 -6 -19 -14
-17 -11 3 -11 0 0 -12 10 -14 10 -16 -6 -16 -15 0 -16 -2 -5 -9 13 -8 13 -12
1 -26 -12 -14 -12 -18 1 -26 12 -7 12 -9 -2 -9 -11 0 -15 -9 -14 -30 1 -22 -1
-27 -10 -20 -9 8 -11 4 -7 -15 2 -14 -2 -33 -9 -42 -12 -14 -12 -16 1 -8 12 6
13 5 3 -6 -7 -7 -13 -23 -13 -35 0 -13 -5 -26 -10 -29 -6 -4 -10 -12 -9 -18 4
-30 -2 -58 -10 -53 -5 4 -8 -2 -7 -11 2 -10 -2 -21 -8 -25 -7 -5 -6 -8 4 -8
11 0 12 -2 3 -8 -11 -7 -25 -55 -27 -94 0 -10 -4 -18 -8 -18 -4 0 -8 -13 -8
-30 0 -16 -5 -30 -12 -30 -6 0 -8 -3 -5 -7 4 -3 0 -17 -9 -31 -9 -13 -11 -21
-5 -18 13 8 14 4 5 -18 -3 -9 -11 -13 -16 -10 -6 4 -5 -3 1 -15 8 -15 9 -21 1
-21 -6 0 -8 -5 -5 -10 4 -6 2 -16 -3 -23 -6 -7 -12 -25 -14 -42 -1 -16 -7 -29
-13 -28 -5 0 -11 -19 -11 -44 -1 -25 -6 -48 -10 -52 -8 -6 -11 -14 -18 -64 -1
-10 -9 -23 -17 -28 -12 -7 -12 -9 0 -9 11 0 10 -4 -3 -19 -12 -13 -14 -21 -6
-26 8 -5 7 -11 -2 -22 -13 -16 -14 -19 -16 -61 -1 -14 -6 -21 -13 -16 -8 4 -8
0 0 -15 10 -17 9 -22 -3 -27 -9 -3 -12 -12 -9 -21 4 -11 2 -14 -5 -9 -16 9
-15 -7 0 -22 9 -9 9 -12 0 -12 -7 0 -12 -9 -12 -20 0 -11 -6 -20 -12 -20 -9 0
-8 -3 2 -10 12 -8 12 -10 -4 -16 -14 -5 -15 -9 -4 -15 10 -7 11 -9 0 -9 -7 0
-11 -4 -8 -9 9 -15 -5 -42 -18 -34 -6 4 -6 0 2 -9 9 -11 10 -18 2 -23 -6 -3
-8 -11 -5 -16 4 -5 0 -9 -7 -9 -9 0 -9 -3 2 -10 12 -7 12 -10 1 -10 -7 0 -11
-6 -8 -14 3 -8 -1 -17 -9 -20 -9 -3 -13 -10 -9 -16 3 -5 1 -29 -6 -52 -6 -24
-11 -45 -11 -48 0 -3 -5 -16 -10 -30 -5 -14 -12 -36 -15 -50 -2 -14 -8 -29
-13 -34 -5 -5 -6 -15 -3 -22 3 -8 0 -14 -6 -14 -6 0 -8 -7 -5 -15 4 -8 1 -21
-5 -29 -7 -8 -11 -18 -10 -22 1 -5 0 -11 -1 -14 -1 -3 -3 -12 -5 -20 -2 -8 -8
-29 -13 -47 -6 -17 -8 -34 -4 -37 3 -3 1 -6 -4 -6 -5 0 -11 -12 -12 -27 -1
-15 -5 -29 -10 -32 -4 -3 -8 -19 -10 -36 -2 -16 -9 -33 -15 -37 -8 -5 -7 -8 3
-8 13 0 13 -1 0 -10 -8 -5 -11 -10 -6 -10 5 0 4 -6 -1 -12 -6 -7 -9 -21 -8
-30 2 -10 -1 -18 -6 -18 -5 0 -9 -10 -9 -23 0 -13 -6 -32 -14 -42 -8 -11 -12
-25 -9 -32 3 -7 2 -21 -3 -30 -9 -23 -11 -29 -13 -49 -1 -9 -6 -12 -13 -8 -10
6 -10 4 0 -8 10 -13 10 -18 0 -29 -8 -8 -13 -24 -12 -36 1 -13 -2 -23 -5 -23
-4 0 -8 -8 -9 -17 -2 -19 -9 -54 -12 -63 -1 -3 -2 -8 -1 -12 0 -5 -3 -8 -7 -8
-4 0 -8 -8 -9 -17 0 -10 -4 -29 -8 -43 -4 -14 -7 -31 -7 -37 -1 -7 -5 -13 -9
-13 -4 0 -5 -10 -1 -22 3 -13 1 -19 -5 -15 -7 5 -9 -1 -5 -15 3 -13 1 -19 -5
-15 -6 4 -8 -4 -5 -20 3 -14 1 -23 -4 -20 -5 3 -10 -9 -11 -26 0 -17 -6 -33
-12 -35 -9 -3 -9 -7 0 -18 9 -11 8 -14 -7 -15 -12 0 -14 -3 -6 -6 10 -4 10 -8
1 -19 -6 -8 -8 -14 -4 -14 4 0 2 -7 -5 -15 -9 -11 -10 -15 -1 -15 8 0 7 -6 -3
-16 -18 -17 -21 -28 -6 -19 6 3 7 -1 4 -9 -3 -9 -10 -16 -15 -16 -4 0 -6 -7
-3 -15 4 -9 0 -15 -7 -15 -11 0 -11 -3 1 -10 12 -8 12 -12 2 -18 -7 -5 -14
-20 -16 -33 -2 -22 -5 -32 -25 -84 -5 -11 -7 -28 -5 -37 1 -10 -2 -18 -7 -18
-6 0 -8 -4 -4 -9 3 -5 1 -12 -3 -15 -5 -3 -9 -16 -8 -28 1 -13 -3 -26 -8 -30
-5 -3 -11 -21 -13 -39 -2 -18 -9 -39 -16 -48 -10 -12 -9 -13 3 -6 12 7 13 6 3
-7 -7 -8 -10 -18 -6 -21 3 -4 1 -7 -5 -7 -6 0 -9 -9 -7 -20 2 -11 -1 -20 -6
-20 -6 0 -8 -3 -5 -8 6 -10 -207 -8 -224 3 -8 5 -11 4 -6 -3 4 -7 -1 -10 -14
-9 -11 1 -20 4 -20 7 0 4 -7 7 -15 7 -8 0 -12 -4 -9 -9 3 -4 0 -8 -5 -8 -6 0
-11 6 -11 13 0 8 -4 7 -10 -3 -5 -8 -10 -10 -10 -3 0 12 -17 12 -37 0 -8 -5
-13 -3 -13 4 0 8 -4 8 -15 -1 -12 -10 -15 -10 -15 1 0 11 -2 11 -10 -1 -5 -8
-10 -10 -10 -3 0 12 -24 12 -36 0 -4 -3 -15 -2 -25 4 -11 5 -19 7 -19 3 0 -3
-8 0 -17 7 -9 8 -14 9 -10 3 4 -7 0 -14 -8 -18 -8 -3 -17 -1 -20 4 -6 10 -24
8 -44 -4 -10 -6 -12 -5 -7 2 4 7 1 12 -8 12 -9 0 -16 -6 -16 -12 0 -8 -3 -9
-8 -3 -11 16 -52 18 -52 3 0 -9 -3 -9 -10 2 -5 8 -10 11 -10 6 0 -5 -6 -3 -14
3 -8 7 -16 8 -19 4 -6 -9 -109 -8 -133 1 -8 3 -13 2 -10 -3 7 -10 -45 -8 -62
3 -8 4 -12 0 -12 -11 0 -12 -3 -14 -8 -6 -5 9 -56 12 -183 11 -97 -1 -181 2
-187 6 -7 4 -12 1 -13 -6 0 -8 -2 -9 -5 -2 -3 7 -18 9 -43 4 -22 -4 -47 -3
-56 3 -13 7 -16 6 -11 -2 4 -6 2 -11 -3 -11 -6 0 -11 6 -12 13 0 9 -2 9 -6 -1
-4 -10 -9 -9 -24 4 -11 9 -22 14 -26 11 -3 -4 -1 -7 5 -7 7 0 12 -4 12 -9 0
-10 -51 -8 -68 2 -5 4 -12 1 -15 -5 -3 -10 -7 -10 -19 0 -13 10 -17 10 -21 0
-3 -10 -12 -9 -37 5 -28 15 -31 15 -20 2 12 -14 10 -16 -13 -10 -18 5 -27 3
-27 -5 0 -7 -6 -6 -16 4 -18 19 -28 21 -18 4 5 -8 2 -9 -11 -5 -9 4 -25 2 -33
-5 -13 -11 -14 -11 -7 1 6 11 3 13 -12 9 -11 -3 -28 -1 -38 5 -12 6 -16 6 -11
-1 3 -5 -1 -13 -10 -16 -8 -3 -12 -2 -9 4 9 14 -19 12 -34 -2 -11 -10 -13 -10
-7 0 4 7 2 12 -6 12 -8 0 -20 -6 -27 -12 -11 -10 -13 -10 -7 0 5 8 0 12 -14
12 -14 0 -19 -4 -14 -12 4 -7 -3 -4 -16 7 -13 11 -20 14 -16 7 6 -10 3 -13
-10 -11 -11 2 -25 0 -31 -4 -8 -5 -13 -4 -13 3 0 11 -40 7 -61 -6 -8 -4 -9 -3
-5 4 9 16 -7 15 -22 0 -9 -9 -12 -9 -12 2 0 13 -2 13 -10 0 -5 -8 -10 -10 -10
-4 0 6 -7 11 -15 11 -8 0 -15 -5 -15 -11 0 -6 -4 -5 -9 3 -6 9 -11 10 -15 2
-5 -8 -13 -8 -26 -1 -13 7 -20 6 -24 -3 -5 -9 -7 -9 -12 0 -4 10 -11 10 -26 2
-16 -8 -19 -8 -13 1 6 9 3 9 -13 1 -27 -14 -35 -14 -26 1 5 7 3 8 -6 3 -19
-12 -113 -14 -126 -3 -8 5 -17 3 -27 -6 -8 -8 -18 -12 -21 -9 -10 10 -48 14
-42 5 7 -11 -77 -1 -93 12 -11 8 -13 8 -8 0 4 -7 0 -14 -8 -18 -8 -3 -17 -1
-21 5 -3 6 -12 3 -21 -8 -8 -10 -11 -12 -8 -5 5 9 1 13 -11 11 -11 -2 -24 0
-31 4 -6 4 -18 1 -26 -8 -13 -13 -16 -13 -21 2 -5 12 -10 13 -18 5 -6 -6 -17
-8 -24 -5 -8 3 -14 0 -14 -7 0 -6 -5 -8 -10 -5 -6 4 -7 12 -3 18 3 7 -2 4 -13
-5 -16 -14 -23 -15 -33 -5 -11 9 -14 9 -18 -1 -4 -10 -8 -10 -19 -1 -9 7 -14
8 -14 1 0 -6 -8 -9 -17 -7 -10 1 -17 9 -15 16 1 9 -3 7 -12 -4 -9 -12 -16 -15
-21 -7 -5 8 -11 8 -21 -1 -11 -9 -14 -8 -14 2 0 9 -3 10 -8 4 -11 -16 -45 -19
-37 -3 6 10 5 10 -5 1 -11 -10 -17 -10 -29 0 -12 9 -13 9 -7 0 5 -9 -1 -12
-23 -9 -17 2 -31 -1 -31 -6 0 -5 -5 -6 -10 -3 -6 4 -7 12 -3 18 4 8 1 7 -9 -1
-20 -16 -108 -21 -108 -7 0 6 -3 6 -8 0 -4 -6 -27 -11 -52 -10 -25 0 -48 -4
-52 -10 -5 -7 -8 -6 -8 1 0 12 -60 11 -79 -1 -8 -4 -16 -2 -21 5 -5 9 -9 9
-14 1 -4 -6 -12 -11 -17 -11 -6 0 -7 5 -3 11 5 8 1 8 -14 0 -14 -8 -23 -8 -27
-1 -5 7 -11 8 -19 1 -6 -5 -28 -8 -49 -6 -23 2 -37 -1 -37 -8 0 -7 -5 -5 -10
3 -7 11 -10 11 -10 2 0 -9 -5 -10 -19 -2 -14 7 -21 6 -24 -3 -4 -9 -7 -9 -18
0 -10 10 -17 9 -33 -5 -11 -9 -16 -11 -12 -4 4 7 1 12 -8 12 -9 0 -16 -6 -16
-12 0 -10 -2 -10 -9 0 -9 14 -32 13 -43 -3 -5 -6 -8 -5 -8 4 0 11 -3 11 -15 1
-12 -10 -15 -10 -15 1 0 11 -2 11 -10 -1 -8 -13 -10 -13 -10 0 0 11 -3 11 -12
2 -9 -9 -15 -9 -27 1 -11 9 -13 9 -8 0 9 -15 -35 -14 -45 2 -5 6 -8 2 -8 -8 0
-12 -4 -16 -12 -11 -19 12 -48 12 -48 1 0 -5 -7 -4 -15 3 -12 10 -15 10 -15
-1 0 -10 -2 -11 -8 -2 -5 7 -13 9 -21 3 -8 -4 -20 -6 -28 -3 -7 3 -21 -1 -30
-8 -9 -8 -14 -9 -10 -3 4 8 -2 11 -17 10 -13 0 -22 -4 -19 -8 2 -5 0 -8 -6 -8
-5 0 -12 6 -15 13 -5 9 -7 9 -12 -1 -5 -10 -9 -10 -22 0 -12 10 -14 10 -8 1 4
-7 3 -13 -3 -13 -5 0 -13 5 -16 10 -4 7 -11 7 -18 2 -7 -5 -22 -8 -35 -6 -15
3 -21 0 -16 -7 5 -8 2 -9 -11 -2 -10 6 -32 7 -49 4 -17 -4 -47 -6 -66 -5 -19
1 -38 -4 -42 -10 -5 -8 -8 -7 -8 2 0 8 -5 10 -12 6 -19 -12 -48 -12 -48 0 0 6
-4 5 -9 -3 -6 -9 -11 -10 -15 -2 -4 6 -13 8 -19 4 -13 -8 -35 -13 -57 -13 -8
0 -24 0 -35 -1 -11 0 -39 0 -63 1 -24 0 -41 -4 -38 -9 7 -11 -27 -9 -35 3 -4
5 -13 5 -20 0 -20 -12 -102 -13 -117 -1 -9 7 -11 6 -6 -7 5 -13 2 -15 -17 -7
-18 6 -27 4 -37 -8 -7 -9 -11 -11 -7 -4 4 8 -4 12 -25 10 -16 -1 -30 -6 -30
-10 0 -4 -6 -7 -12 -6 -36 4 -59 -2 -52 -13 5 -9 2 -9 -9 1 -14 11 -17 11 -17
0 0 -9 -3 -10 -8 -4 -11 16 -64 13 -57 -3 3 -8 0 -10 -6 -6 -19 11 -122 5
-131 -8 -6 -10 -8 -10 -8 0 0 6 -5 12 -11 12 -5 0 -8 -4 -5 -8 2 -4 -4 -8 -15
-8 -10 0 -19 4 -19 9 0 4 -5 5 -10 2 -6 -4 -8 -10 -5 -14 5 -9 -39 -6 -54 4
-6 3 -11 -2 -12 -12 -1 -13 -3 -11 -9 7 -6 20 -8 21 -9 5 -1 -15 -4 -16 -13
-7 -9 9 -16 8 -32 -6 -11 -9 -16 -11 -12 -4 10 18 -33 9 -45 -9 -7 -11 -9 -10
-9 5 0 16 -2 16 -16 5 -17 -14 -66 -20 -58 -7 8 12 -8 9 -40 -7 -26 -14 -28
-14 -21 3 5 13 4 14 -6 5 -9 -9 -17 -9 -33 -1 -18 10 -19 9 -9 -4 10 -12 10
-15 -2 -15 -8 0 -15 5 -15 11 0 6 -5 4 -10 -4 -9 -13 -10 -13 -10 0 0 13 -1
13 -10 0 -8 -13 -13 -13 -31 -2 -11 8 -18 9 -14 3 3 -6 4 -11 1 -11 -2 0 -13
-3 -23 -7 -16 -6 -17 -5 -3 13 14 17 14 18 -2 6 -9 -8 -23 -10 -29 -6 -7 4 -9
3 -6 -3 4 -6 0 -14 -9 -17 -11 -4 -15 -2 -11 8 4 10 1 13 -8 9 -8 -3 -13 -8
-10 -12 2 -4 -2 -8 -10 -8 -8 0 -11 5 -8 11 5 8 2 8 -8 0 -8 -6 -33 -10 -56
-9 -24 1 -40 -2 -36 -8 3 -5 -4 -4 -14 2 -15 8 -25 7 -39 -4 -23 -17 -34 -19
-34 -4 0 5 5 7 12 3 7 -4 8 -3 4 5 -6 9 -11 9 -22 0 -8 -6 -17 -9 -21 -5 -3 3
-1 6 5 6 7 0 11 3 10 8 -3 12 14 56 29 74 11 12 11 18 3 23 -9 6 -9 9 1 15 7
5 14 19 16 31 2 13 9 27 16 31 6 4 8 8 3 8 -5 0 -2 7 5 17 8 9 13 19 12 22 -5
13 9 41 20 41 7 0 6 4 -3 10 -11 7 -11 10 -2 10 7 0 10 5 7 10 -3 6 -1 10 5
10 6 0 8 5 5 10 -3 6 0 10 7 10 9 0 9 3 -2 10 -8 5 -10 10 -5 10 6 0 15 11 22
25 8 19 8 24 0 19 -7 -3 -5 0 4 8 9 7 15 21 13 31 -1 9 2 15 7 11 5 -3 10 5
11 18 0 13 1 30 2 38 1 8 10 16 20 18 13 3 15 6 7 12 -10 5 -10 10 1 21 7 8
13 19 13 24 1 21 27 85 35 85 5 0 6 7 3 17 -4 10 -2 14 4 10 7 -5 9 0 6 13 -3
12 0 20 6 20 7 0 10 4 6 9 -3 5 0 13 6 16 5 4 8 13 5 20 -3 8 0 15 5 17 5 2
11 13 12 26 1 15 6 21 16 17 11 -4 12 -3 1 10 -9 11 -9 15 -1 15 7 0 9 5 6 10
-3 6 -2 10 3 10 8 0 10 6 14 49 1 11 7 17 12 14 5 -4 7 1 3 10 -3 9 -1 17 4
19 5 2 11 13 12 25 0 12 5 19 9 17 4 -3 8 1 9 8 2 37 11 64 24 74 8 6 12 14 9
17 -3 3 -2 12 2 19 5 7 9 18 9 23 0 6 8 24 17 41 10 17 14 34 11 38 -4 3 -2 6
4 6 5 0 10 7 11 15 1 8 3 22 4 30 1 8 5 15 10 15 5 0 6 5 3 10 -3 6 -1 10 4
10 6 0 11 9 11 19 0 11 4 22 10 26 5 3 7 12 4 20 -4 8 0 17 9 20 8 4 13 16 11
31 -1 13 2 22 7 18 5 -3 10 1 11 8 2 25 5 33 24 73 10 22 19 49 20 60 1 10 7
21 13 23 6 2 11 12 11 22 0 10 5 22 11 25 6 4 8 13 5 20 -2 7 2 16 11 19 12 5
13 9 4 20 -9 10 -8 15 4 20 9 3 14 10 10 15 -3 5 -1 12 5 16 5 3 10 15 10 26
0 10 5 19 10 19 6 0 10 11 10 24 0 14 5 28 10 31 6 4 8 11 5 16 -4 5 -1 9 4 9
6 0 10 3 10 8 -4 21 3 32 19 33 14 0 14 2 -3 9 -16 7 -17 9 -3 9 11 1 16 8 13
21 -2 11 1 20 7 20 5 0 8 7 4 15 -3 9 0 15 8 15 10 0 12 7 8 22 -4 17 -2 20
11 15 13 -5 15 -2 7 17 -7 19 -4 28 10 41 10 9 16 23 13 31 -3 8 2 17 11 20
10 4 16 15 14 28 -2 12 2 20 9 19 7 -2 10 4 7 12 -4 8 -2 15 4 15 5 0 10 6 9
13 -1 32 4 48 13 42 5 -3 7 0 4 8 -3 8 1 21 9 28 7 8 12 20 9 27 -2 6 2 12 9
12 7 0 9 3 6 7 -4 3 -2 12 4 20 9 10 8 13 0 13 -7 0 -9 5 -6 10 4 6 11 8 16 5
8 -5 14 16 10 38 0 4 3 7 9 7 5 0 7 7 4 15 -4 8 -1 15 6 15 7 0 10 7 6 15 -3
10 1 15 12 15 15 0 15 2 2 10 -11 7 -11 10 -2 10 7 0 10 5 7 10 -3 6 0 10 7
10 9 0 9 3 -2 10 -13 8 -12 10 3 10 10 0 15 5 12 10 -3 6 -1 10 5 10 6 0 8 5
5 10 -4 6 -2 17 4 24 6 7 12 23 15 37 2 13 9 23 15 22 6 -2 8 4 4 14 -4 11 -3
14 5 9 7 -4 12 -2 12 3 0 6 -6 11 -12 11 -9 0 -9 3 1 9 8 5 11 16 8 25 -3 8
-1 18 5 22 7 5 8 2 3 -6 -5 -9 -4 -11 3 -6 7 4 12 18 12 32 0 14 4 22 10 19 6
-3 7 1 4 9 -3 9 -1 16 6 16 6 0 9 4 5 9 -3 5 0 13 6 16 5 4 8 13 5 20 -2 7 3
16 12 20 14 5 14 7 2 15 -10 7 -11 10 -2 10 6 0 12 7 12 15 0 8 5 15 11 15 5
0 8 4 4 9 -3 5 -1 12 5 16 6 4 8 10 5 15 -3 5 1 20 10 33 8 13 12 27 8 30 -3
4 -1 7 6 7 7 0 9 5 5 12 -5 8 -2 9 11 4 15 -5 16 -4 6 8 -9 11 -9 17 2 28 7 7
12 19 9 26 -2 6 4 15 13 18 13 5 14 8 3 15 -10 7 -11 9 0 9 7 0 10 5 7 10 -3
6 -1 10 5 10 7 0 10 7 6 15 -3 8 -1 15 5 15 6 0 8 7 5 16 -4 10 -2 13 6 8 8
-5 9 -2 5 9 -3 10 -2 17 3 17 6 0 9 6 7 13 -1 6 4 11 12 9 11 -2 12 0 2 11 -9
12 -8 16 6 21 15 6 15 8 3 16 -12 8 -11 10 5 10 17 0 17 2 5 10 -8 5 -10 10
-5 10 15 0 46 70 31 70 -6 0 -4 6 5 13 9 7 17 15 18 19 1 7 4 16 16 54 3 8 9
13 14 10 5 -3 7 3 4 14 -3 11 0 26 6 33 6 8 7 18 3 23 -4 4 1 3 10 -4 9 -8 15
-22 13 -33 -2 -10 2 -19 8 -19 8 0 8 -3 -2 -9 -9 -6 -10 -10 -2 -16 9 -5 9
-10 0 -21 -10 -12 -10 -15 1 -12 8 2 14 -1 15 -7 0 -5 4 -16 8 -22 6 -9 3 -11
-10 -6 -17 6 -17 5 0 -14 9 -11 14 -23 10 -27 -4 -4 -1 -11 7 -16 13 -8 13
-10 1 -10 -11 0 -9 -4 5 -15 19 -14 19 -14 -1 -15 -19 -1 -19 -1 -2 -11 9 -6
15 -14 12 -20 -4 -5 -2 -9 2 -9 5 0 9 -9 10 -20 1 -13 -3 -18 -10 -14 -7 3 -4
-1 5 -9 10 -8 15 -17 11 -21 -4 -4 -1 -11 7 -16 13 -9 13 -10 0 -10 -12 0 -12
-2 -2 -8 7 -5 14 -23 15 -40 1 -18 6 -32 10 -32 5 0 6 -4 2 -9 -3 -5 -1 -12 4
-16 5 -3 8 -14 6 -25 -2 -11 0 -20 6 -20 5 0 8 -3 8 -7 -4 -22 2 -33 14 -27 8
5 8 2 -2 -9 -9 -11 -10 -17 -2 -17 6 0 11 -11 11 -24 0 -14 4 -27 8 -30 4 -3
14 -28 22 -55 7 -28 18 -51 23 -51 5 0 7 -9 4 -20 -3 -11 -1 -20 5 -20 5 0 6
-4 3 -10 -3 -5 -1 -10 5 -10 6 0 10 -8 8 -17 -2 -10 6 -26 17 -36 11 -10 13
-15 5 -11 -12 7 -13 5 -3 -8 7 -8 10 -18 6 -21 -3 -4 -1 -7 5 -7 7 0 12 -9 12
-20 0 -11 4 -20 9 -20 5 0 12 -7 15 -16 5 -12 3 -14 -7 -8 -7 5 -5 2 5 -7 9
-9 14 -19 11 -23 -4 -3 -1 -6 6 -6 7 0 9 -4 6 -10 -8 -13 19 -52 29 -43 4 4 4
0 0 -10 -3 -10 -1 -17 6 -17 6 0 8 -4 5 -10 -3 -5 -1 -10 5 -10 6 0 8 -4 5
-10 -3 -5 -1 -10 5 -10 6 0 8 -4 5 -10 -3 -5 -1 -10 5 -10 6 0 8 -4 5 -10 -3
-5 4 -21 17 -34 13 -13 24 -30 26 -37 2 -8 8 -16 13 -17 5 -2 7 -8 3 -13 -3
-5 0 -9 6 -9 6 0 9 -4 6 -8 -3 -5 4 -15 15 -22 10 -8 19 -20 19 -28 0 -18 26
-43 35 -34 5 4 5 2 2 -4 -4 -7 0 -17 8 -24 8 -7 15 -18 15 -25 0 -7 13 -23 29
-36 21 -16 26 -26 18 -31 -8 -5 -6 -8 6 -8 9 0 17 -4 17 -8 0 -5 7 -17 16 -28
8 -10 12 -12 8 -4 -6 12 -5 13 7 2 8 -7 14 -18 14 -25 1 -7 6 -11 13 -10 6 2
9 -4 6 -12 -4 -9 0 -15 10 -15 9 0 16 -5 16 -11 0 -5 6 -7 13 -3 8 5 7 2 -2
-9 -12 -15 -12 -17 4 -11 13 5 16 4 11 -4 -5 -8 1 -12 16 -13 13 0 17 -3 11
-6 -21 -8 -15 -22 7 -16 12 3 20 2 19 -3 -1 -5 -1 -16 0 -24 1 -13 2 -13 11 0
7 11 10 12 10 2 0 -16 19 -36 43 -45 9 -3 17 -11 17 -17 0 -6 5 -8 10 -5 6 3
10 -1 10 -10 0 -9 5 -13 10 -10 6 3 10 1 10 -6 0 -7 3 -10 6 -6 4 3 14 -2 23
-11 11 -12 13 -13 7 -2 -5 8 5 0 21 -17 17 -18 32 -30 35 -28 3 3 11 -1 18
-10 7 -8 21 -15 32 -15 10 0 16 -4 13 -10 -3 -5 1 -10 9 -10 9 0 16 -6 17 -12
0 -10 2 -10 6 0 3 9 13 4 31 -15 15 -16 23 -21 19 -11 -5 15 -4 16 13 6 10 -7
16 -16 14 -20 -3 -4 4 -8 15 -8 11 0 41 -11 66 -25 25 -14 45 -23 45 -20 0 3
6 0 14 -7 8 -7 11 -17 8 -23 -3 -5 1 -4 10 3 9 7 18 9 20 3 1 -5 17 -11 33
-14 33 -4 60 -13 89 -28 14 -8 16 -8 10 3 -6 10 -5 10 7 2 8 -6 24 -10 37 -9
12 1 22 -2 22 -6 0 -4 8 -6 18 -4 9 1 25 -2 36 -7 14 -8 17 -7 11 3 -6 8 -4
10 5 4 21 -13 60 -14 60 -2 0 6 7 2 15 -9 9 -12 14 -14 15 -6 0 8 5 10 12 6
19 -12 258 -11 258 1 0 6 4 4 8 -2 7 -10 12 -10 28 1 14 11 22 12 33 3 11 -9
15 -9 19 1 3 10 7 10 20 0 9 -7 13 -8 10 -3 -4 7 9 11 36 12 53 2 69 6 78 18
5 6 8 5 8 -3 0 -9 5 -10 19 -3 10 6 21 7 25 4 3 -3 6 0 6 8 0 11 2 11 10 -1 7
-11 10 -12 10 -2 0 9 7 11 20 7 11 -3 20 -2 20 3 0 6 11 9 25 7 14 -1 25 2 25
8 0 5 7 4 16 -3 12 -11 15 -11 12 -1 -4 17 32 23 49 9 11 -8 12 -7 7 7 -5 12
-4 16 4 11 6 -3 13 -2 17 3 3 5 13 10 23 10 9 0 26 2 37 5 11 2 24 5 28 5 5 1
6 5 3 10 -3 4 6 7 21 5 14 -1 37 4 49 13 13 8 24 11 24 7 0 -5 5 -1 11 9 8 14
14 16 25 6 11 -9 14 -8 14 7 0 15 2 16 9 5 7 -11 11 -10 20 5 6 11 11 14 11 6
0 -10 4 -10 16 2 18 18 39 22 28 4 -4 -7 -3 -8 5 -4 6 4 9 11 6 16 -3 5 7 12
22 16 15 4 34 12 42 18 12 9 13 8 7 -4 -4 -9 -2 -8 7 2 8 10 17 15 20 11 4 -3
7 -1 7 5 0 7 7 12 15 12 9 0 18 7 21 15 4 8 10 13 14 10 13 -8 40 6 33 18 -4
6 2 8 16 4 13 -3 20 -3 17 0 -10 10 63 55 77 47 6 -4 9 -4 5 1 -4 4 -1 14 7
21 17 17 28 18 20 2 -4 -7 2 -3 13 9 11 12 22 19 26 16 3 -4 6 -2 6 4 0 6 11
14 25 17 17 4 23 11 18 19 -4 7 0 7 10 -2 15 -12 17 -12 11 3 -5 14 -2 17 17
14 18 -2 24 2 23 14 -1 10 3 15 8 12 5 -3 19 2 30 13 15 12 19 13 14 3 -4 -9
-2 -8 7 3 8 9 20 17 27 17 7 0 10 6 7 13 -3 8 1 14 9 14 7 0 11 -5 8 -11 -3
-6 0 -4 8 5 7 9 19 14 27 11 8 -3 11 0 8 6 -4 5 1 16 10 23 12 10 14 10 9 2
-4 -7 -2 -13 3 -13 6 0 11 6 11 13 0 6 18 21 40 31 22 11 38 21 35 24 -2 3 13
14 35 24 25 12 37 25 33 32 -4 6 2 4 12 -4 17 -14 18 -13 12 3 -4 11 -2 17 8
17 8 0 15 5 15 10 0 6 6 9 13 8 6 -2 11 4 9 12 -2 8 0 12 4 8 4 -4 20 2 35 13
16 11 34 17 40 13 8 -4 9 -3 5 5 -4 6 0 14 8 17 9 3 13 10 10 15 -3 5 2 9 11
9 18 0 47 25 39 33 -3 3 4 3 17 0 14 -4 20 -2 15 5 -3 6 -2 13 4 17 5 3 10 0
11 -7 0 -7 5 -3 11 10 6 13 16 21 22 19 14 -5 47 29 38 39 -4 4 -2 4 5 0 7 -4
22 3 33 14 11 11 26 18 32 14 6 -4 8 -3 5 3 -4 6 3 13 14 16 12 3 18 10 15 16
-3 5 7 12 24 16 18 4 27 11 23 18 -4 7 0 8 11 4 9 -4 15 -3 13 1 -6 9 19 33
27 25 3 -4 6 -1 6 5 0 7 7 12 15 12 8 0 15 5 15 11 0 5 5 7 12 3 8 -5 9 -2 5
10 -4 9 -3 14 2 11 5 -3 13 0 16 6 4 5 14 8 23 4 9 -3 13 -3 10 1 -9 8 8 25
44 43 15 8 25 18 22 23 -3 4 4 8 14 8 11 0 22 7 26 15 3 8 13 15 21 15 10 0
13 5 9 11 -4 7 -1 10 7 7 8 -3 19 4 26 16 7 12 12 15 13 8 0 -7 5 -10 10 -7 6
4 8 11 5 16 -4 5 0 9 7 9 7 0 26 11 42 25 16 14 33 25 38 25 5 0 6 5 2 12 -5
7 -2 9 9 5 9 -3 18 1 21 10 4 9 9 13 12 10 4 -3 19 9 36 26 21 23 27 27 23 12
-5 -14 -2 -13 9 5 8 14 15 21 16 17 0 -4 6 -2 14 5 8 7 12 16 9 21 -2 4 -1 7
4 6 19 -3 34 2 29 10 -7 11 22 23 35 15 5 -3 8 -1 7 4 -2 5 13 22 32 38 19 16
31 22 25 13 -5 -8 -1 -5 10 8 12 13 25 23 31 23 5 0 17 8 26 18 32 35 72 67
64 52 -4 -9 -2 -8 7 2 8 10 16 15 20 12 3 -3 8 4 12 17 6 17 9 19 16 8 7 -11
9 -10 9 5 0 12 5 16 14 13 9 -4 17 2 21 14 4 10 11 19 16 19 6 0 17 7 26 15 8
8 19 13 24 10 5 -4 6 2 2 11 -4 12 -3 15 5 10 7 -4 12 -2 12 4 0 6 5 8 10 5 6
-3 10 -2 10 4 0 5 13 18 29 27 17 10 28 21 25 26 -3 5 -2 8 3 7 21 -4 33 2 33
16 0 8 6 14 13 12 6 -1 11 3 10 10 -2 7 4 10 12 7 8 -4 15 -1 15 6 0 7 7 10
15 6 8 -3 14 -2 14 2 -3 17 2 32 9 31 19 -3 32 2 29 13 -1 7 4 13 11 14 6 1
17 2 22 3 6 0 10 8 10 17 0 8 4 13 9 9 6 -3 15 4 21 15 8 14 17 19 28 15 9 -3
14 -3 10 0 -9 9 23 45 40 45 7 0 15 7 18 15 4 8 10 12 15 9 5 -3 9 0 9 6 0 6
5 8 12 4 6 -4 8 -3 5 3 -4 6 1 17 10 24 14 12 16 12 8 -1 -4 -8 1 -6 12 5 11
11 19 22 17 25 -1 4 7 12 19 20 20 12 21 12 8 -4 -8 -9 -11 -19 -7 -23 3 -3 6
-2 6 3 0 18 41 55 52 48 7 -4 8 -2 4 5 -4 6 0 14 8 17 9 3 13 11 9 18 -3 6 -3
8 2 4 12 -11 45 10 46 30 0 10 3 12 6 5 3 -10 7 -10 18 0 7 7 11 15 8 20 -2 4
3 7 11 7 9 0 16 5 16 11 0 6 7 9 15 5 8 -3 14 -2 14 2 -4 27 1 34 17 22 8 -8
14 -9 13 -4 -3 18 1 37 8 31 3 -4 17 6 31 21 14 15 30 27 34 27 5 0 13 6 17
14 5 7 14 10 20 7 6 -4 10 -3 9 2 -4 13 35 51 45 45 4 -3 2 -12 -5 -21z m392
-5697 c0 12 40 12 60 0 9 -5 11 -4 6 3 -4 7 -2 12 3 12 6 0 11 -6 11 -12 0 -8
3 -9 8 -3 9 13 32 18 32 7 0 -7 33 -8 50 -2 15 6 37 4 48 -4 9 -7 16 -5 23 5
7 11 9 11 9 0 0 -9 8 -12 25 -9 14 3 25 1 25 -4 0 -5 8 -5 18 -1 16 8 36 9 55
3 4 -1 10 -3 15 -4 4 -1 13 -5 21 -10 10 -6 12 -5 7 2 -5 8 5 11 28 10 19 -1
33 -5 30 -10 -3 -4 6 -4 20 2 14 5 26 6 26 2 0 -5 27 -8 61 -7 33 1 62 -2 65
-6 2 -4 17 -4 33 1 25 7 29 6 23 -8 -5 -15 -3 -15 10 -4 12 9 18 10 23 2 5 -8
11 -8 21 1 11 9 14 9 14 -1 0 -10 3 -10 15 0 8 7 15 8 15 3 0 -5 19 -10 43
-12 23 -1 63 -3 89 -4 27 -1 48 -6 48 -12 0 -5 5 -3 10 5 5 8 10 11 10 5 0 -5
20 -11 45 -12 25 0 53 -7 62 -15 9 -7 14 -8 10 -2 -4 8 3 11 23 10 17 0 30 -4
30 -8 0 -3 8 -5 18 -3 9 1 23 -3 31 -9 8 -6 12 -6 9 -1 -6 11 48 13 58 2 3 -3
12 -3 20 0 8 3 14 0 14 -7 0 -7 7 -10 16 -6 8 3 25 1 36 -5 15 -8 19 -8 14 0
-4 6 -2 11 3 11 6 0 11 -8 11 -17 0 -15 2 -16 10 -3 7 12 13 13 28 4 13 -8 24
-9 37 -2 12 7 16 7 11 0 -3 -6 8 -10 30 -10 20 0 41 -5 47 -11 7 -7 14 -7 24
0 9 9 13 8 13 0 0 -8 5 -9 19 -2 20 11 48 -8 33 -24 -4 -4 3 -1 16 6 19 12 24
12 31 0 7 -10 10 -11 16 -1 6 10 11 9 21 -4 6 -9 15 -13 18 -8 7 12 56 3 56
-10 0 -5 8 -4 19 2 14 7 22 7 26 0 4 -6 11 -8 16 -5 5 4 9 0 9 -7 0 -10 2 -10
9 1 7 11 11 10 20 -5 6 -11 11 -14 11 -8 0 6 7 11 15 11 8 0 12 -3 10 -7 -2
-4 10 -8 28 -9 48 -4 70 -7 87 -13 8 -4 23 -7 33 -7 37 -2 47 -5 47 -12 0 -5
14 -7 30 -5 17 2 30 -1 30 -7 0 -5 7 -4 16 3 12 11 15 11 12 0 -2 -8 7 -14 22
-14 14 -1 31 -5 39 -10 10 -7 12 -5 7 5 -4 8 0 5 8 -5 12 -15 16 -16 17 -5 0
9 2 10 5 2 3 -7 12 -9 20 -6 8 3 14 -1 14 -8 0 -11 3 -11 10 1 8 12 10 12 10
1 0 -8 3 -11 7 -8 3 4 13 1 21 -6 13 -10 14 -9 8 1 -7 11 -4 12 11 3 11 -6 23
-7 27 -4 3 3 6 1 6 -5 0 -6 11 -9 26 -6 18 3 23 1 18 -7 -5 -8 -2 -10 8 -6 9
3 27 0 41 -8 14 -7 30 -9 38 -5 8 5 24 1 40 -11 17 -12 30 -16 34 -9 4 7 13 5
27 -4 11 -8 27 -12 34 -9 8 3 14 0 14 -6 0 -6 10 -11 23 -11 45 0 57 -4 58
-19 0 -9 3 -11 5 -5 6 14 44 6 44 -8 0 -6 7 -5 15 2 12 10 15 10 15 0 0 -8 3
-10 7 -7 3 4 12 -1 20 -11 8 -9 12 -11 8 -4 -4 7 0 12 9 12 9 0 16 -5 16 -11
0 -5 5 -7 10 -4 6 3 10 2 10 -4 0 -6 7 -8 15 -5 8 4 15 1 15 -7 0 -7 3 -9 7
-6 3 4 13 1 21 -6 13 -9 14 -9 8 1 -11 18 10 15 30 -5 10 -10 19 -16 21 -15 7
7 103 -22 103 -32 0 -5 3 -7 6 -3 4 3 28 -2 55 -12 26 -10 50 -16 53 -13 4 3
6 0 6 -6 0 -7 11 -12 24 -12 14 0 28 -5 31 -11 4 -6 13 -8 21 -5 8 3 17 -1 21
-10 5 -13 7 -13 14 -2 7 10 9 10 9 1 0 -7 7 -13 16 -13 8 0 12 -5 8 -11 -4 -8
0 -9 15 -4 13 4 21 2 21 -5 0 -6 5 -8 10 -5 6 3 10 2 10 -4 0 -5 9 -8 20 -6
12 2 20 -2 20 -10 0 -9 6 -12 15 -9 8 4 15 1 15 -5 0 -6 7 -8 15 -5 8 4 15 1
15 -5 0 -6 9 -11 20 -11 11 0 20 -5 20 -11 0 -5 4 -8 9 -5 5 3 14 -1 21 -9 7
-8 21 -15 31 -15 11 0 19 -6 19 -12 0 -10 2 -10 9 0 6 11 10 10 15 -3 4 -10
12 -15 22 -11 8 3 12 2 9 -4 -3 -6 1 -10 9 -10 9 0 24 -8 34 -18 10 -10 23
-17 29 -15 5 2 16 -3 23 -12 7 -8 19 -15 26 -15 8 0 14 -4 14 -10 0 -5 6 -10
14 -10 7 0 19 -7 26 -15 7 -8 16 -12 21 -10 5 3 14 -3 21 -15 7 -11 17 -20 23
-20 6 0 17 -9 24 -19 8 -11 20 -17 28 -14 7 3 13 -2 13 -12 0 -9 5 -13 10 -10
6 3 10 -1 10 -10 0 -9 4 -14 9 -10 5 3 17 -5 25 -17 9 -12 16 -19 16 -14 0 5
14 -5 30 -23 17 -17 35 -31 41 -31 6 0 8 -7 5 -16 -3 -8 -2 -13 3 -10 8 5 71
-48 71 -60 0 -3 7 -12 15 -20 8 -9 15 -12 15 -8 0 4 6 -1 14 -11 8 -11 12 -23
10 -27 -3 -4 2 -5 10 -2 9 3 16 1 16 -6 0 -12 7 -21 63 -79 17 -18 25 -30 17
-26 -8 5 0 -6 18 -24 18 -17 30 -36 27 -40 -2 -5 5 -11 16 -14 15 -4 20 -11
16 -21 -4 -10 -1 -16 8 -16 8 0 15 -6 15 -13 0 -7 9 -23 20 -35 11 -12 20 -26
20 -31 0 -6 7 -14 16 -19 9 -5 15 -12 15 -15 -3 -18 1 -26 19 -47 11 -12 17
-27 13 -33 -3 -5 -1 -7 5 -3 6 3 13 -3 17 -14 4 -11 11 -18 16 -15 5 3 6 -1 3
-9 -3 -9 -1 -16 6 -16 6 0 9 -4 5 -10 -3 -5 3 -18 14 -29 11 -11 17 -22 14
-25 -4 -3 -1 -6 5 -6 7 0 11 -3 11 -7 -3 -19 2 -34 9 -29 4 2 9 -5 9 -16 1
-11 10 -30 20 -41 12 -14 13 -18 3 -12 -11 6 -10 3 3 -12 9 -11 17 -27 17 -37
0 -10 5 -14 12 -10 8 5 9 0 6 -14 -4 -12 -2 -20 3 -16 5 3 9 3 9 0 0 -2 3 -12
7 -22 5 -13 3 -15 -8 -10 -8 4 -5 0 6 -9 11 -9 19 -23 17 -31 -2 -8 2 -14 8
-14 5 0 9 -3 8 -7 -1 -5 6 -25 15 -46 9 -21 18 -45 19 -55 2 -9 6 -19 10 -22
4 -3 9 -21 12 -40 6 -47 16 -70 30 -70 6 0 4 -5 -4 -10 -8 -5 -10 -10 -4 -10
10 0 12 -6 15 -47 1 -10 6 -24 12 -30 5 -7 6 -13 2 -13 -4 0 -2 -7 5 -15 9
-11 9 -15 1 -15 -8 0 -9 -6 -3 -17 5 -10 7 -24 5 -30 -3 -7 1 -13 8 -13 7 0 9
-3 6 -7 -4 -3 -2 -12 4 -20 8 -9 8 -13 0 -13 -7 0 -8 -8 -2 -22 4 -13 7 -31 6
-40 -2 -10 2 -18 8 -18 7 0 5 -5 -3 -10 -10 -6 -11 -10 -2 -10 6 0 12 -9 12
-20 0 -11 -6 -20 -12 -20 -10 0 -10 -2 -1 -8 7 -4 13 -28 14 -52 1 -25 7 -51
13 -59 8 -11 8 -13 -1 -7 -7 4 -13 3 -13 -3 0 -5 5 -13 10 -16 7 -4 7 -12 0
-25 -7 -13 -7 -21 0 -25 5 -3 10 -11 10 -16 0 -6 -5 -7 -12 -3 -7 5 -8 3 -2
-7 14 -22 14 -119 0 -120 -6 0 -2 -4 9 -9 11 -5 15 -9 10 -9 -7 -1 -10 -22 -9
-51 2 -28 -2 -50 -7 -50 -6 0 -7 -5 -4 -10 4 -6 12 -7 18 -3 8 5 8 2 0 -9 -7
-8 -10 -18 -6 -21 3 -4 0 -13 -6 -21 -7 -9 -8 -17 -2 -20 11 -7 9 -25 -3 -45
-7 -11 -6 -12 5 -6 12 8 12 6 0 -8 -11 -14 -11 -17 0 -17 9 0 10 -3 4 -8 -6
-4 -12 -32 -14 -62 -3 -55 -8 -118 -10 -133 -1 -5 -7 -5 -13 -2 -7 4 -5 0 5
-8 10 -8 14 -18 9 -21 -5 -3 -10 -18 -10 -33 -3 -51 -7 -68 -17 -75 -6 -5 -5
-8 3 -8 8 0 10 -5 5 -12 -8 -13 -10 -22 -17 -73 -3 -16 -5 -30 -6 -30 -1 0 -3
-10 -6 -23 -3 -16 0 -21 8 -16 7 5 8 3 4 -5 -5 -7 -15 -10 -23 -7 -9 4 -11 2
-6 -7 11 -17 13 -37 3 -37 -5 0 -7 -8 -5 -17 1 -10 -3 -33 -11 -50 -8 -20 -9
-33 -3 -33 6 0 7 -5 4 -10 -4 -6 -12 -7 -18 -3 -7 4 -6 0 2 -10 7 -10 9 -17 3
-17 -6 0 -9 -11 -7 -25 1 -14 -2 -28 -8 -32 -6 -4 -7 -1 -2 7 5 8 4 11 -2 7
-6 -4 -8 -19 -5 -33 4 -21 2 -25 -9 -19 -12 7 -12 6 -1 -7 9 -11 10 -18 3 -23
-6 -3 -16 -15 -22 -27 -8 -15 -8 -19 0 -14 6 4 11 2 11 -3 0 -6 -5 -11 -10
-11 -6 0 -10 -6 -9 -12 3 -25 -1 -39 -10 -34 -4 3 -6 -6 -3 -21 3 -18 1 -24
-6 -19 -8 5 -10 2 -6 -8 4 -10 1 -16 -7 -16 -11 0 -11 -3 1 -10 11 -7 11 -10
2 -10 -7 0 -11 -4 -8 -8 3 -5 -1 -20 -9 -35 -8 -15 -11 -27 -8 -27 3 0 0 -6
-6 -13 -6 -8 -8 -17 -4 -20 3 -4 1 -7 -5 -7 -7 0 -11 -3 -11 -7 1 -5 1 -10 -1
-13 -1 -3 -3 -16 -6 -29 -2 -13 -12 -30 -22 -38 -9 -8 -11 -11 -4 -8 10 6 11
3 3 -11 -5 -11 -12 -27 -15 -37 -4 -11 -11 -15 -18 -11 -10 5 -10 4 -1 -6 10
-11 9 -16 -5 -26 -14 -11 -14 -13 -2 -14 12 0 10 -4 -4 -15 -14 -11 -16 -15
-5 -15 10 -1 8 -4 -5 -11 -15 -9 -16 -13 -5 -20 10 -6 11 -9 2 -9 -7 0 -13 -9
-13 -20 0 -11 -6 -20 -12 -20 -9 0 -8 -4 2 -10 13 -8 12 -10 -3 -10 -10 0 -15
-4 -12 -10 8 -13 -19 -52 -30 -42 -4 4 -5 0 -3 -8 6 -18 -10 -53 -21 -46 -4 3
-8 -1 -8 -9 0 -8 5 -11 10 -8 5 3 -1 -8 -14 -26 -12 -17 -26 -31 -31 -31 -4 0
-5 -6 -2 -13 2 -7 -4 -21 -15 -31 -11 -10 -18 -23 -15 -27 3 -5 -2 -12 -10
-15 -9 -3 -16 -14 -16 -24 0 -9 -10 -22 -22 -28 -13 -6 -18 -11 -11 -11 7 -1
10 -8 7 -16 -4 -8 -10 -12 -15 -9 -8 5 -13 -9 -10 -28 0 -5 -5 -8 -13 -8 -9 0
-13 -7 -11 -19 3 -15 -1 -18 -13 -14 -9 3 -14 3 -10 -2 10 -11 -11 -47 -23
-40 -5 4 -9 3 -8 -2 4 -22 -2 -43 -11 -38 -5 3 -10 -1 -10 -9 0 -9 -8 -16 -17
-17 -13 0 -14 -2 -4 -6 10 -4 8 -9 -10 -19 -13 -7 -18 -13 -11 -14 8 0 0 -14
-17 -31 -17 -17 -29 -35 -25 -40 3 -5 1 -8 -4 -7 -6 2 -10 -1 -10 -5 -1 -5
-13 -20 -29 -34 -15 -14 -21 -22 -13 -18 10 4 9 1 -2 -8 -10 -8 -14 -18 -10
-22 4 -5 -1 -5 -11 -2 -11 4 -16 3 -12 -3 3 -6 1 -10 -6 -10 -7 0 -9 -3 -6 -7
4 -3 -1 -12 -11 -20 -11 -10 -12 -12 -2 -8 8 4 6 0 -4 -9 -10 -8 -22 -13 -26
-11 -4 3 -7 -3 -6 -13 0 -9 -5 -16 -12 -14 -6 1 -11 -1 -11 -5 3 -20 -2 -34
-10 -28 -5 3 -12 -4 -16 -15 -4 -11 -11 -17 -17 -14 -7 5 -9 1 -5 -9 6 -15 -3
-22 -25 -18 -4 0 -4 -7 -1 -16 5 -13 2 -15 -11 -10 -10 4 -15 3 -11 -3 3 -6 1
-10 -4 -10 -6 0 -10 -6 -9 -12 2 -7 -3 -12 -9 -10 -7 1 -13 -3 -13 -10 0 -6
-18 -28 -40 -49 -21 -20 -36 -39 -33 -43 4 -3 -1 -6 -11 -6 -9 0 -14 -4 -11
-10 3 -5 1 -10 -5 -10 -15 0 -41 -26 -33 -34 6 -6 -12 -10 -30 -7 -5 1 -6 -3
-2 -9 3 -5 -1 -13 -9 -16 -9 -3 -13 -11 -9 -17 4 -7 0 -8 -13 -3 -10 4 -15 4
-11 0 4 -4 -8 -21 -26 -38 -17 -17 -31 -34 -30 -38 2 -4 -4 -5 -12 -2 -9 4
-15 0 -15 -9 0 -9 -5 -19 -12 -23 -7 -4 -8 -3 -4 4 5 8 2 10 -8 6 -9 -3 -13
-10 -10 -16 3 -5 -4 -12 -16 -15 -12 -3 -19 -11 -16 -19 3 -9 0 -11 -11 -7
-11 4 -14 2 -9 -5 4 -7 2 -12 -5 -12 -7 0 -27 -15 -44 -32 -18 -18 -39 -34
-46 -36 -8 -2 -21 -12 -31 -22 -9 -11 -21 -20 -27 -20 -6 0 -11 -4 -11 -10 0
-5 -7 -10 -16 -10 -9 0 -12 -5 -8 -12 5 -7 2 -9 -9 -5 -12 4 -14 2 -10 -10 4
-10 2 -14 -4 -10 -6 4 -22 -4 -36 -17 -14 -13 -28 -21 -31 -18 -3 3 -6 -3 -6
-14 0 -15 -2 -16 -9 -5 -7 11 -10 9 -16 -8 -3 -11 -11 -21 -16 -21 -6 0 -7 6
-4 13 4 6 0 4 -8 -5 -8 -10 -19 -18 -25 -18 -6 0 -16 -8 -21 -17 -6 -10 -11
-13 -11 -8 0 6 -10 -1 -21 -15 -11 -14 -18 -18 -14 -10 4 8 -1 6 -9 -4 -9 -11
-16 -17 -16 -13 0 4 -9 -2 -20 -13 -12 -12 -25 -18 -30 -15 -6 4 -10 1 -10 -5
0 -6 -4 -9 -9 -6 -5 3 -12 -1 -15 -10 -4 -9 -9 -14 -12 -11 -4 3 -15 -4 -26
-16 -11 -12 -17 -15 -13 -7 5 12 4 12 -7 -1 -7 -9 -19 -14 -25 -12 -7 3 -16
-2 -19 -11 -3 -9 -10 -13 -15 -10 -5 3 -9 0 -9 -5 0 -6 -9 -11 -20 -11 -11 0
-23 -6 -26 -14 -3 -8 -12 -12 -20 -9 -8 3 -14 1 -14 -5 0 -9 -20 -18 -44 -20
-5 0 -13 -7 -18 -16 -5 -9 -13 -14 -19 -11 -5 4 -9 2 -9 -4 0 -5 -9 -8 -20 -6
-11 2 -18 0 -15 -6 4 -5 -3 -9 -14 -9 -12 0 -21 -4 -21 -9 0 -7 -24 -17 -57
-23 -5 0 -14 -8 -21 -17 -10 -12 -12 -12 -6 -1 6 11 2 10 -13 -3 -11 -9 -23
-14 -26 -11 -4 4 -13 1 -21 -5 -8 -7 -20 -10 -25 -6 -7 3 -8 0 -5 -9 4 -11 0
-14 -15 -11 -12 2 -21 -1 -21 -6 0 -6 -4 -7 -10 -4 -5 3 -10 0 -10 -7 0 -9 -3
-9 -10 2 -7 12 -10 12 -10 1 0 -8 -6 -11 -15 -7 -9 3 -18 -1 -22 -9 -4 -12 -8
-13 -19 -4 -12 10 -13 8 -7 -7 6 -16 4 -17 -8 -7 -12 10 -19 8 -34 -9 -18 -22
-18 -22 -26 -3 -7 17 -8 18 -8 3 -1 -10 -4 -18 -8 -19 -5 0 -18 -2 -31 -5 -16
-3 -21 0 -17 8 4 7 0 5 -9 -6 -8 -10 -20 -15 -27 -10 -8 4 -10 3 -5 -4 7 -11
-17 -16 -61 -15 -7 1 -13 -3 -13 -8 0 -5 -11 -7 -25 -5 -14 3 -23 1 -20 -5 7
-10 5 -10 -40 -13 -16 0 -35 -7 -41 -15 -8 -10 -13 -11 -18 -2 -4 6 -13 8 -19
4 -22 -14 -49 -14 -42 -1 4 7 -1 4 -9 -6 -9 -11 -16 -16 -16 -12 0 5 -7 3 -15
-4 -11 -9 -15 -9 -15 -1 0 7 -4 9 -10 6 -5 -3 -18 -8 -27 -10 -10 -2 -27 -7
-38 -11 -18 -7 -19 -6 -5 12 14 18 14 18 -6 2 -23 -20 -39 -24 -28 -7 3 6 -4
5 -17 -3 -13 -8 -35 -14 -49 -14 -14 1 -28 -3 -32 -9 -5 -6 -8 -5 -8 3 0 9 -5
10 -19 2 -14 -7 -22 -7 -26 0 -5 8 -11 7 -21 -1 -8 -6 -14 -8 -14 -4 0 4 -6 2
-14 -4 -10 -8 -16 -9 -21 -1 -4 7 -12 7 -26 0 -14 -8 -19 -7 -19 2 0 9 -3 9
-10 -2 -9 -13 -10 -13 -10 0 0 13 -1 13 -10 0 -9 -13 -10 -13 -10 0 0 13 -1
13 -10 0 -7 -11 -10 -11 -10 -2 0 10 -5 10 -21 1 -16 -8 -20 -8 -14 1 6 9 2 9
-14 1 -15 -8 -21 -9 -21 -1 0 6 -5 8 -12 4 -19 -12 -48 -12 -48 -1 0 5 -7 4
-15 -3 -8 -7 -15 -8 -15 -3 0 5 -21 9 -47 8 -27 -1 -60 1 -74 5 -15 4 -32 4
-39 0 -18 -11 -42 -1 -33 14 4 6 -1 5 -10 -3 -12 -9 -17 -10 -17 -2 0 8 -5 9
-19 1 -14 -7 -22 -7 -26 1 -4 6 -13 8 -21 5 -8 -3 -14 -1 -14 3 0 5 -9 7 -20
4 -11 -3 -20 -1 -20 4 0 5 -7 10 -15 10 -8 0 -15 -5 -15 -11 0 -5 -7 -1 -15
10 -8 10 -15 14 -15 7 0 -15 -40 -4 -40 11 0 6 -5 4 -10 -4 -7 -11 -10 -11
-10 -2 0 7 -4 10 -10 7 -5 -3 -10 0 -10 7 0 9 -3 9 -10 -2 -9 -14 -14 -7 -11
13 1 4 -8 3 -19 -3 -15 -8 -20 -8 -20 1 0 8 -5 7 -17 -2 -9 -8 -14 -9 -10 -3
4 7 -1 18 -10 25 -12 10 -14 10 -9 2 4 -7 2 -13 -3 -13 -6 0 -11 4 -11 9 0 6
-9 8 -20 6 -11 -2 -20 0 -20 5 0 5 -7 6 -17 3 -11 -5 -14 -3 -8 6 5 10 2 11
-14 6 -14 -4 -21 -2 -21 7 0 10 -3 9 -10 -2 -8 -13 -10 -12 -10 4 0 11 -3 16
-7 13 -3 -4 -17 0 -31 9 -13 9 -22 12 -18 6 7 -12 -20 -10 -31 3 -4 4 -2 5 6
0 9 -5 12 -4 7 3 -4 6 -13 9 -21 5 -8 -3 -15 0 -15 7 0 6 -4 8 -10 5 -5 -3
-10 0 -10 7 0 10 -3 9 -10 -2 -8 -12 -10 -12 -16 3 -3 9 -10 14 -15 11 -5 -3
-9 -1 -9 4 0 6 -7 13 -16 16 -15 6 -15 4 -3 -11 13 -17 12 -17 -6 -2 -11 9
-28 19 -38 22 -10 4 -16 11 -13 16 3 5 -4 7 -16 3 -14 -3 -19 -1 -14 6 4 7 -1
10 -14 7 -13 -2 -20 1 -20 11 0 11 -6 13 -20 9 -16 -5 -19 -3 -13 12 3 10 3
15 -2 11 -4 -4 -17 -2 -29 4 -11 7 -27 13 -34 14 -7 1 -21 12 -31 23 -10 12
-25 21 -32 21 -8 0 -21 9 -29 19 -7 11 -17 18 -22 15 -4 -3 -8 0 -8 6 0 6 -4
8 -10 5 -5 -3 -10 -1 -10 5 0 6 -4 8 -10 5 -5 -3 -10 1 -10 9 0 9 -8 16 -18
16 -19 0 -69 49 -64 63 1 5 -3 5 -9 1 -7 -4 -20 3 -31 17 -11 13 -17 17 -13 9
4 -8 -7 1 -24 20 -17 19 -31 31 -31 25 -1 -5 -8 4 -16 20 -8 17 -12 21 -9 10
l5 -20 -16 20 c-8 11 -20 19 -25 17 -6 -1 -8 1 -5 6 2 4 1 14 -5 22 -7 13 -9
13 -9 0 -1 -9 -5 -6 -10 7 -5 13 -16 23 -25 23 -8 0 -14 3 -14 8 3 17 -1 35
-7 30 -7 -8 -42 25 -37 35 2 4 -3 7 -12 7 -12 0 -15 5 -11 17 4 10 4 14 0 11
-8 -8 -34 14 -27 25 2 4 -1 7 -7 7 -6 0 -9 4 -6 8 3 5 -4 15 -15 22 -10 8 -19
22 -19 31 0 10 -5 19 -10 21 -6 2 -12 13 -13 25 0 12 -5 19 -9 17 -4 -3 -8 2
-8 10 0 9 -4 16 -10 16 -5 0 -7 7 -4 15 4 8 1 15 -6 15 -7 0 -10 6 -7 14 3 8
-1 17 -9 20 -9 3 -13 10 -10 15 4 5 -1 17 -10 25 -11 11 -12 16 -3 16 7 0 4 6
-7 15 -10 8 -15 15 -10 15 5 0 3 7 -4 15 -7 8 -9 15 -5 15 4 0 1 8 -6 17 -12
15 -12 16 1 8 8 -4 4 4 -10 20 -14 16 -18 25 -10 20 12 -6 13 -5 3 6 -7 7 -13
23 -13 36 0 13 -4 23 -9 23 -5 0 -9 11 -10 25 -3 49 -4 55 -14 55 -5 0 -3 8 4
17 10 11 10 14 2 9 -13 -7 -17 4 -14 32 1 6 -3 12 -9 12 -7 0 -7 6 1 21 9 17
8 20 -2 14 -9 -6 -11 -2 -6 14 3 12 -1 28 -10 36 -9 10 -10 15 -2 15 8 0 8 5
-2 17 -12 15 -12 16 1 8 13 -8 13 -7 1 8 -11 14 -11 17 0 18 10 0 11 2 2 6 -7
2 -13 15 -13 28 0 13 -5 27 -10 30 -7 4 -7 13 0 26 8 14 7 19 -1 19 -8 0 -8 4
1 15 7 8 8 15 2 15 -5 0 -9 18 -9 41 0 25 -5 44 -14 50 -11 7 -10 9 6 9 15 0
17 2 6 9 -8 5 -11 16 -8 25 4 9 1 16 -5 16 -7 0 -7 4 1 14 8 10 9 16 1 21 -5
3 -10 11 -10 16 0 6 6 7 13 3 7 -5 6 -1 -2 10 -9 11 -14 35 -12 62 1 27 -3 52
-11 61 -8 10 -8 14 -1 10 8 -5 11 4 10 33 -1 22 -6 40 -11 40 -5 0 -3 6 3 14
8 10 9 16 1 21 -10 6 -7 45 6 66 4 7 3 9 -3 6 -6 -4 -10 4 -10 18 0 16 4 22
11 18 6 -4 5 0 -2 9 -9 11 -10 18 -2 23 5 3 10 12 10 18 0 7 -4 6 -11 -3 -8
-12 -9 -8 -7 15 1 17 -2 36 -6 44 -6 9 -5 12 1 8 14 -9 12 55 -2 65 -7 5 -6 8
1 8 12 0 11 71 -1 91 -5 8 -4 10 3 5 16 -10 15 7 0 23 -11 12 -10 13 6 7 14
-5 16 -3 9 6 -17 23 -22 47 -11 54 7 5 8 2 3 -6 -5 -9 -4 -11 4 -6 9 6 9 11 0
22 -9 11 -8 18 2 31 12 15 12 16 -5 10 -18 -7 -18 -6 -1 19 17 26 17 27 0 20
-16 -6 -16 -5 -1 18 11 17 12 27 5 32 -8 4 -7 9 2 15 9 6 10 9 2 9 -12 0 -12
17 0 38 5 7 3 12 -4 12 -8 0 -8 4 1 15 10 12 10 15 0 15 -10 0 -10 4 1 16 10
13 10 17 -2 25 -12 7 -12 9 1 9 13 0 13 1 0 10 -8 5 -10 10 -3 10 6 0 10 8 8
18 -1 9 3 23 9 31 8 11 8 13 0 8 -7 -4 -14 0 -18 8 -3 8 0 17 6 21 7 5 8 2 3
-6 -5 -9 -4 -11 4 -6 6 4 8 12 5 18 -4 6 -6 31 -5 57 1 25 2 58 3 73 0 18 5
25 12 21 7 -4 7 -1 -1 7 -8 9 -9 19 -2 32 6 11 6 18 0 18 -5 0 -7 15 -4 33 4
17 6 40 7 50 0 9 4 17 8 17 5 0 4 8 -1 18 -5 10 -6 24 -2 31 4 7 6 24 3 38 -4
19 -2 24 8 18 9 -6 10 -3 1 13 -13 24 -14 35 -3 28 12 -7 10 38 -2 46 -7 5 -7
8 1 8 7 0 10 7 7 15 -4 9 -1 15 7 15 9 0 10 3 2 11 -14 14 -5 51 11 42 6 -3 3
3 -7 14 -18 21 -18 22 0 32 10 6 13 11 8 11 -12 0 -15 40 -3 40 4 0 4 7 1 17
-5 12 -3 14 8 8 8 -5 5 2 -6 15 -11 13 -14 20 -6 15 11 -6 13 -3 9 13 -5 16
-2 22 10 23 14 0 13 2 -3 9 -11 5 -14 9 -7 9 9 1 11 8 7 22 -5 15 -4 19 4 15
8 -5 8 0 1 19 -5 14 -6 24 -2 21 5 -3 9 14 10 37 3 72 7 92 17 99 6 5 5 8 -3
8 -8 0 -10 5 -6 12 4 7 8 29 8 50 0 21 4 38 9 38 5 0 6 8 3 17 -4 9 -1 20 6
25 10 8 10 11 1 15 -10 3 -10 10 -2 25 6 11 8 26 5 34 -3 8 -1 14 3 14 5 0 7
10 3 22 -4 16 -2 19 9 13 11 -6 12 -5 2 5 -10 11 -10 17 0 29 10 12 9 13 -3 6
-13 -8 -13 -6 -2 8 8 9 11 21 7 27 -4 6 -2 17 5 25 8 10 8 15 0 20 -8 5 -6 13
6 26 12 13 14 22 6 31 -7 9 -6 19 4 32 11 16 11 21 1 28 -9 6 -9 8 0 8 7 0 10
7 6 17 -5 11 -3 14 6 8 10 -6 11 -3 1 15 -7 12 -8 20 -2 16 5 -3 10 6 11 22 1
53 4 67 15 81 9 12 8 13 -3 6 -10 -6 -12 -4 -6 5 9 14 16 53 16 83 0 9 5 15
11 11 6 -4 6 1 -1 14 -7 14 -8 23 -1 27 6 4 8 11 5 16 -4 5 -1 9 6 9 8 0 7 5
-2 17 -12 14 -12 15 0 9 10 -7 12 -3 6 14 -4 13 -3 20 2 17 5 -4 10 0 10 8 0
8 -5 15 -11 15 -6 0 -5 4 3 9 8 5 11 16 8 25 -3 8 0 22 8 29 10 11 11 17 2 26
-8 8 -8 11 1 11 6 0 9 7 6 15 -4 9 0 15 7 15 11 0 11 3 -1 10 -12 8 -12 10 -1
10 9 0 12 8 9 25 -3 14 -2 28 3 31 4 2 5 12 2 21 -5 12 -3 14 8 8 12 -8 12 -6
0 8 -12 15 -11 17 5 17 11 0 15 4 9 8 -13 9 -18 32 -6 32 4 0 6 11 3 25 -2 14
0 25 5 25 5 0 9 10 8 23 -1 12 3 25 9 29 7 5 6 8 -4 8 -10 0 -11 3 -4 8 7 4
14 21 15 37 2 17 8 33 14 37 6 5 5 8 -2 8 -7 0 -10 7 -7 15 4 8 10 12 15 9 5
-3 9 -1 9 5 0 5 -5 13 -12 17 -7 5 -5 11 7 21 11 7 14 13 8 13 -13 0 6 81 22
92 6 5 4 8 -5 8 -9 0 -11 3 -5 8 6 4 12 14 14 22 6 30 12 65 12 83 0 9 5 15
10 11 6 -3 7 4 4 19 -4 14 -2 28 5 32 8 5 7 11 -2 23 -11 13 -11 14 0 8 9 -6
12 -3 10 10 -2 12 2 18 11 16 12 -3 12 0 2 12 -7 8 -8 17 -2 20 5 3 8 18 6 32
-2 20 1 24 14 19 12 -5 13 -4 4 6 -8 8 -9 18 -2 31 5 10 7 23 4 28 -3 6 0 10
7 10 9 0 9 3 -2 10 -8 5 -10 10 -4 10 7 0 15 7 18 16 4 10 2 13 -7 8 -9 -6 -9
-5 0 8 7 8 14 27 15 42 2 16 8 26 18 26 12 0 13 2 1 9 -7 5 -11 13 -8 18 3 5
9 25 12 44 3 19 10 36 16 37 5 2 6 8 3 13 -3 6 0 17 8 26 11 14 11 16 -2 8
-12 -7 -12 -5 1 11 9 10 14 25 12 32 -3 7 1 20 9 29 11 14 11 16 -2 8 -13 -8
-13 -7 -1 8 7 9 10 17 6 17 -4 0 -2 6 4 13 6 8 8 17 4 20 -3 4 0 13 7 22 7 9
10 18 7 22 -4 3 1 12 11 20 9 8 11 12 5 8 -18 -9 -16 5 5 28 9 11 11 17 3 12
-10 -6 -11 -2 -6 16 4 13 12 26 16 27 5 2 9 8 9 13 0 6 -5 7 -11 4 -13 -8 12
37 26 47 6 5 5 8 -4 8 -11 0 -11 3 -1 15 7 8 10 26 8 40 -3 14 1 30 8 36 8 6
14 19 14 28 0 9 6 23 13 30 10 11 9 12 -3 6 -13 -8 -13 -6 -2 8 8 9 11 21 7
27 -3 5 2 10 12 10 15 0 16 2 3 10 -10 6 -11 10 -2 10 6 0 12 5 12 11 0 5 -6
7 -12 4 -7 -4 -2 2 12 13 18 15 27 17 32 9 4 -7 8 -8 8 -2z m5290 -7119 c0 -3
-4 -8 -10 -11 -5 -3 -10 -1 -10 4 0 6 5 11 10 11 6 0 10 -2 10 -4z"/>
<path d="M6705 15549 c-4 -6 -5 -12 -2 -15 2 -3 7 2 10 11 7 17 1 20 -8 4z"/>
<path d="M5810 11979 c0 -5 5 -7 10 -4 6 3 10 8 10 11 0 2 -4 4 -10 4 -5 0
-10 -5 -10 -11z"/>
<path d="M5320 17149 c0 -5 5 -7 10 -4 6 3 10 8 10 11 0 2 -4 4 -10 4 -5 0
-10 -5 -10 -11z"/>
<path d="M11010 16875 c-11 -13 -10 -14 4 -9 9 3 16 10 16 15 0 13 -6 11 -20
-6z"/>
<path d="M9394 15634 c-18 -14 -18 -15 4 -4 12 6 22 13 22 15 0 8 -5 6 -26
-11z"/>
<path d="M14755 1480 c-3 -5 -1 -10 4 -10 6 0 11 5 11 10 0 6 -2 10 -4 10 -3
0 -8 -4 -11 -10z"/>
</g>
</svg>
